<svg width="33" height="32" viewBox="0 0 33 32" fill="none" xmlns="http://www.w3.org/2000/svg">
<path d="M15.1667 22.6667H17.8334V17.3333H23.1667V14.6667H17.8334V9.33332H15.1667V14.6667H9.83335V17.3333H15.1667V22.6667ZM16.5 29.3333C14.6556 29.3333 12.9222 28.9889 11.3 28.3C9.6778 27.5889 8.26669 26.6333 7.06669 25.4333C5.86669 24.2333 4.91113 22.8222 4.20002 21.2C3.51113 19.5778 3.16669 17.8444 3.16669 16C3.16669 14.1555 3.51113 12.4222 4.20002 10.8C4.91113 9.17777 5.86669 7.76666 7.06669 6.56666C8.26669 5.36666 9.6778 4.42221 11.3 3.73332C12.9222 3.02221 14.6556 2.66666 16.5 2.66666C18.3445 2.66666 20.0778 3.02221 21.7 3.73332C23.3222 4.42221 24.7334 5.36666 25.9334 6.56666C27.1334 7.76666 28.0778 9.17777 28.7667 10.8C29.4778 12.4222 29.8334 14.1555 29.8334 16C29.8334 17.8444 29.4778 19.5778 28.7667 21.2C28.0778 22.8222 27.1334 24.2333 25.9334 25.4333C24.7334 26.6333 23.3222 27.5889 21.7 28.3C20.0778 28.9889 18.3445 29.3333 16.5 29.3333ZM16.5 26.6667C19.4778 26.6667 22 25.6333 24.0667 23.5667C26.1334 21.5 27.1667 18.9778 27.1667 16C27.1667 13.0222 26.1334 10.5 24.0667 8.43332C22 6.36666 19.4778 5.33332 16.5 5.33332C13.5222 5.33332 11 6.36666 8.93335 8.43332C6.86669 10.5 5.83335 13.0222 5.83335 16C5.83335 18.9778 6.86669 21.5 8.93335 23.5667C11 25.6333 13.5222 26.6667 16.5 26.6667Z" fill="#949494"/>
</svg>
