<svg width="60" height="60" viewBox="0 0 60 60" fill="none" xmlns="http://www.w3.org/2000/svg">
<path d="M30 0C46.5685 0 60 13.4315 60 30C60 46.5685 46.5685 60 30 60C13.4315 60 0 46.5685 0 30C0 13.4315 13.4315 0 30 0ZM30 22.4004L26 16.667L16.667 30H19.1338L14 38H23.333V43.333H28.667V38H31.333V43.333H36.667V38H46L40.8662 30H43.333L34 16.667L30 22.4004ZM30.2002 27.333H27.9668L33.1338 35.333H18.8662L24.0332 27.333H21.7998L26 21.333L30.2002 27.333ZM38.2002 27.333H35.9668L41.1338 35.333H36.2998L32.8662 30H35.333L31.6338 24.7002L34 21.333L38.2002 27.333Z" fill="#E8E8E8"/>
</svg>
