<svg width="393" height="386" viewBox="0 0 393 386" fill="none" xmlns="http://www.w3.org/2000/svg">
<mask id="mask0_2348_320" style="mask-type:alpha" maskUnits="userSpaceOnUse" x="0" y="0" width="393" height="386">
<rect width="393" height="386" fill="white"/>
</mask>
<g mask="url(#mask0_2348_320)">
<path d="M506 301.5C506 399.531 426.307 479 328 479C229.693 479 150 399.531 150 301.5C150 203.469 229.693 124 328 124C426.307 124 506 203.469 506 301.5Z" fill="#DFA85E" fill-opacity="0.3"/>
<path d="M330 299.5C330 453.864 204.64 579 50 579C-104.64 579 -230 453.864 -230 299.5C-230 145.136 -104.64 20 50 20C204.64 20 330 145.136 330 299.5Z" fill="#F0D379" fill-opacity="0.3"/>
<g clip-path="url(#clip0_2348_320)">
<path d="M246.818 236.201C241.769 236.275 236.72 236.312 231.671 236.314C231.795 256.161 231.796 276.009 231.673 295.856C232.585 296.244 233.59 296.568 234.011 297.553C234.847 299.511 234.771 315.197 233.936 317.208C233.5 318.258 232.618 318.887 231.722 319.526L231.639 319.585L231.67 350.889C235.824 351.12 240.023 351.004 244.182 351.005L264.482 351.02L279.579 351.032C279.519 340.535 279.551 330.04 279.677 319.544C278.524 318.976 277.375 318.401 276.912 317.121C276.346 315.556 276.32 298.815 277.091 297.456C277.652 296.466 278.634 296.109 279.643 295.7C279.243 288.678 279.506 281.519 279.505 274.479L279.518 236.252C275.041 235.983 270.499 236.108 266.015 236.114C259.616 236.104 253.217 236.133 246.818 236.201Z" fill="#1A1A1A"/>
<path d="M230.699 242.694C230.72 240.569 230.798 238.428 230.733 236.304C225.784 236.256 220.835 236.262 215.886 236.322L215.882 272.875C215.87 280.492 215.743 288.124 215.875 295.739L224.542 295.77C226.575 295.652 228.613 295.669 230.648 295.66L230.699 242.694Z" fill="white"/>
<path d="M226.027 296.813L215.88 296.826L215.887 318.394C218.883 318.985 227.176 318.513 230.613 318.483L230.617 296.833L226.027 296.813Z" fill="white"/>
<path d="M226.179 319.581L215.813 319.579C215.717 330 215.59 340.488 215.834 350.905C218.622 351.457 227.1 351.025 230.594 350.996C230.755 340.542 230.668 330.063 230.638 319.607L226.179 319.581Z" fill="white"/>
<path d="M280.678 296.823C280.607 304.016 280.612 311.209 280.693 318.402C285.753 318.447 290.846 318.56 295.904 318.399C295.91 311.211 296 304.002 295.819 296.816C290.784 296.818 285.708 296.683 280.678 296.823Z" fill="white"/>
<path d="M295.293 319.401C290.49 319.812 285.462 319.479 280.628 319.552C280.544 330.041 280.585 340.53 280.751 351.018L295.806 351.019C295.792 346.854 295.863 342.671 295.712 338.509C296.082 335.237 295.856 331.658 295.859 328.357C295.861 325.532 296.111 322.455 295.741 319.659L295.293 319.401Z" fill="white"/>
<path d="M280.629 236.296L280.709 295.729C285.753 295.791 290.792 295.621 295.831 295.668C296.018 287.384 295.887 279.077 295.884 270.791L295.864 236.283C290.786 236.241 285.707 236.245 280.629 236.296Z" fill="white"/>
<path d="M296.815 245.292L296.831 295.675C298.338 296.211 298.987 296.782 299.939 298.038C300.324 300.843 300.598 315.934 299.274 317.889C298.733 318.687 297.686 319.135 296.814 319.508L296.727 319.545L296.718 351.031C304.824 350.998 313.366 352.149 320.169 346.862C324.42 343.085 327.293 338.346 327.629 332.602C328.047 325.456 327.716 318.116 327.7 310.953L327.575 274.387C319.612 267.611 312.41 259.852 304.824 252.651C302.265 250.222 299.676 247.345 296.815 245.292Z" fill="#1A1A1A"/>
<path d="M214.797 262.14L214.829 246.341C209.047 251.484 203.543 256.953 198.056 262.406L197.468 262.99C195.427 265.019 192.923 267.05 191.092 269.23C189.667 270.627 188.368 272.097 186.754 273.286L186.15 273.737L186.232 314.429L186.219 325.206C186.212 328.124 186.035 331.173 186.577 334.051C187.272 337.74 189.018 341.604 191.693 344.298C194.548 347.687 198.566 350.41 203.094 350.835C203.393 350.861 203.693 350.88 203.993 350.891C206.548 351.428 212.005 351.002 214.769 350.977L214.853 319.458C213.692 318.822 213.02 318.191 212.265 317.1C211.906 314.259 211.806 300.899 212.374 298.381C212.693 296.965 213.585 296.435 214.75 295.744L214.819 295.703L214.797 262.14Z" fill="white"/>
<path d="M214.891 239.343L214.903 236.329C205.933 236.308 198.533 235.422 191.636 242.312C186.169 247.773 186.184 253.543 186.203 260.702L186.204 260.909L186.243 272.287C187.96 270.833 189.536 269.255 191.123 267.667L191.231 267.559C196.706 262.228 202.09 256.818 207.647 251.567C209.97 249.372 212.285 246.85 214.876 244.987L214.891 239.343Z" fill="white"/>
<path d="M244.25 220.92C240.972 221.404 238.169 222.428 236.109 225.199C233.99 228.05 232.692 231.805 231.54 235.138L231.521 235.191C232.754 235.219 233.986 235.24 235.218 235.254C236.253 231.741 237.338 227.056 240.857 225.195C241.915 224.635 243.081 224.361 244.267 224.24C247.429 223.916 250.791 224.174 253.979 224.179C258.283 224.187 262.729 223.925 267.006 224.364C269.979 224.89 272.171 226.14 273.908 228.653C275.198 230.517 276.141 232.866 276.623 235.067L280.028 235.052C278.283 230.129 276.593 224.592 271.47 222.162C270.146 221.534 268.695 221.156 267.24 220.988C263.097 220.508 258.644 220.847 254.467 220.849C251.149 220.851 247.532 220.565 244.25 220.92Z" fill="white"/>
<path d="M136.668 182.215C136.481 181.989 136.297 181.768 136.09 181.559C134.542 179.994 132.419 179.015 130.189 179.081C128.058 179.144 126.496 180.098 125.047 181.559C124.024 183.103 123.413 184.682 123.789 186.557C124.12 188.207 125.133 189.547 126.533 190.467C127.513 191.113 128.545 191.358 129.671 191.611C128.47 188.496 127.424 184.796 128.957 181.592C129.292 180.893 129.858 180.132 130.622 179.865C131.106 179.695 131.61 179.777 132.028 180.069C133.007 180.752 133.268 182.215 133.339 183.312C133.554 186.615 132.089 188.692 131.15 191.671L134.012 190.932C135.53 189.851 136.923 189.507 137.572 187.499C138.164 185.669 137.462 183.854 136.668 182.215Z" fill="white"/>
<path d="M163.448 190.922C165.408 188.718 166.723 188.962 167.199 185.33C167.421 183.638 166.963 181.943 165.863 180.625C164.63 179.148 162.82 178.312 160.909 178.167C158.909 178.017 156.87 178.55 155.357 179.895C153.52 181.527 153.127 183.557 152.985 185.876C153.415 187.918 153.98 189.513 155.878 190.675C157.616 191.739 160.028 192.023 161.988 191.481C162.49 191.342 162.972 191.131 163.448 190.922Z" fill="white"/>
<path d="M157.435 216.796C157.05 216.937 156.705 217.005 156.3 217.047L156.007 216.826C156.058 216.672 156.064 216.494 156.161 216.363C156.348 216.109 157.114 215.751 157.423 215.581C160.089 214.114 162.78 212.865 165.136 210.898C168.528 208.066 171.522 204.275 173.357 200.261C171.553 199.89 162.671 198.721 161.921 198.275L161.881 197.916C162.181 197.58 162.078 197.558 162.576 197.531C166.085 197.339 170.295 198.471 173.749 199.118C174.089 197.871 175.261 194.921 174.941 193.755L174.791 193.614C170.192 193.717 165.102 193.526 160.561 192.846C155.656 192.829 152.61 189.343 148.015 188.272C138.922 187.634 138.384 191.537 131.327 194.976C126.953 197.107 122.458 198.249 117.758 199.383C115.619 199.866 113.432 200.283 111.322 200.87C112.029 202.602 112.889 204.166 113.985 205.686C116.474 204.451 124.846 199.967 127.399 200.863C127.49 200.895 127.578 200.933 127.668 200.968L127.657 200.974L127.412 201.482C122.994 202.83 118.662 204.327 114.669 206.681C119.462 212.564 126.369 216.164 133.822 217.474C134.607 217.612 135.909 217.557 136.1 218.424C135.759 218.767 135.737 218.768 135.287 218.778L135.259 218.778C133.315 218.821 129.598 217.545 127.637 216.872L127.5 216.824C127.081 218.09 136.003 255.555 137.46 260.47C137.971 262.192 138.588 263.902 139.412 265.504C140.479 267.577 142.85 271.334 145.171 272.083C145.831 272.296 146.495 272.195 147.089 271.848C151.771 269.108 155.408 254.039 156.55 248.806C157.559 244.101 158.39 239.365 159.041 234.598C159.462 231.509 156.702 219.819 157.435 216.796Z" fill="white"/>
<path fill-rule="evenodd" clip-rule="evenodd" d="M173.967 175.868C172.893 174.271 171.881 172.627 170.845 171.006C172.652 166.418 173.326 161.759 173.795 156.888C178.813 156.877 183.845 156.808 188.861 156.916C195.341 157.056 201.82 157.399 208.299 157.517C209.789 157.6 211.94 157.752 213.061 158.844C213.292 159.07 213.355 159.316 213.427 159.614C213.264 160.924 212.264 161.757 211.262 162.53C205.012 167.354 194.353 171.195 186.71 173.394C182.89 174.492 178.85 175.367 175.173 176.862C177.732 176.338 180.316 176.219 182.859 175.592C186.755 174.631 190.686 173.463 194.463 172.113C198.914 170.523 211.575 165.306 214.003 161.672C214.452 160.999 214.718 160.143 214.512 159.338C214.229 158.238 213.28 157.625 212.328 157.115C210.748 156.27 196.098 151.422 196.063 151.359C195.956 151.168 195.838 150.982 195.719 150.797L195.354 151.241C192.111 150.936 187.049 149.099 183.725 148.237C180.298 147.349 176.722 146.789 173.345 145.764C173.301 145.719 173.256 145.676 173.213 145.63C171.444 143.784 170.415 140.846 169.058 138.659C168.913 138.427 168.764 138.197 168.613 137.969C168.462 137.741 168.307 137.514 168.15 137.29C167.993 137.066 167.834 136.843 167.671 136.623C167.508 136.402 167.343 136.184 167.175 135.967C167.007 135.751 166.836 135.537 166.662 135.325C166.489 135.113 166.312 134.903 166.134 134.695C165.955 134.487 165.774 134.282 165.59 134.078C165.406 133.875 165.219 133.674 165.03 133.475C164.841 133.277 164.65 133.081 164.456 132.887C164.262 132.693 164.065 132.501 163.867 132.313C163.668 132.124 163.466 131.937 163.263 131.753C163.06 131.569 162.854 131.388 162.646 131.209C162.438 131.03 162.228 130.853 162.015 130.68C161.803 130.506 161.588 130.335 161.371 130.166C161.155 129.998 160.936 129.833 160.715 129.67C160.494 129.507 160.271 129.346 160.046 129.189C159.821 129.032 159.594 128.877 159.365 128.725C159.136 128.573 158.906 128.425 158.673 128.279C158.44 128.132 158.206 127.989 157.969 127.849C157.733 127.709 157.495 127.572 157.256 127.437C157.016 127.303 156.775 127.172 156.532 127.043C156.289 126.915 156.044 126.789 155.798 126.667C155.552 126.545 155.304 126.426 155.055 126.31C154.806 126.193 154.556 126.08 154.304 125.97C154.052 125.86 153.798 125.754 153.544 125.65C153.289 125.546 153.033 125.446 152.776 125.348C152.519 125.251 152.26 125.157 152.001 125.066C151.741 124.975 151.481 124.888 151.219 124.803C150.957 124.719 150.694 124.637 150.43 124.559C150.167 124.482 149.902 124.407 149.636 124.336C149.37 124.264 149.104 124.196 148.837 124.132C148.569 124.067 148.301 124.005 148.032 123.947C146.262 123.583 140.301 123.654 139.384 123.068C138.997 122.821 138.751 122.263 138.542 121.885C138.143 121.162 137.776 120.568 136.918 120.35C136.142 120.153 134.727 120.333 134.098 120.844C133.16 121.607 132.892 123.016 132.783 124.158C123.602 126.257 116.417 131.045 111.357 139.042C111.011 139.582 110.68 140.131 110.364 140.688C110.048 141.246 109.747 141.812 109.461 142.385C109.176 142.958 108.906 143.539 108.651 144.127C108.396 144.715 108.158 145.309 107.936 145.91C107.713 146.51 107.507 147.116 107.318 147.728C107.128 148.339 106.954 148.956 106.798 149.576C106.641 150.197 106.501 150.821 106.378 151.45C106.255 152.078 106.149 152.708 106.06 153.342L108.281 153.289C103.275 156.363 98.3963 159.624 93.6443 163.072C88.8927 166.52 84.282 170.145 79.8124 173.947C78.0927 175.405 74.4113 177.94 73.8552 180.218C73.7062 180.829 73.8478 181.436 74.1964 181.955C75.4125 183.764 78.5591 184.303 80.5911 184.614C84.1682 185.162 105.304 186.162 107.618 184.706C107.699 184.655 107.93 184.565 108 184.5L109.593 184.033C108.232 183.448 101.298 184.267 99.5157 184.32C95.9607 184.425 76.2485 184.784 75.0921 181.07C74.9076 180.477 75.1682 179.842 75.5197 179.365C78.2346 175.68 104.326 167.794 110.167 166.243C110.154 170.638 110.336 174.692 111.276 179.012C111.735 180.378 109.504 183.38 109.324 185.047C108.14 190.016 108.2 194.967 109.62 199.893C105.605 200.659 89.5525 204.693 87.2607 207.095L87.1764 207.487C87.8659 207.781 88.7947 207.332 89.4482 207.072C96.2426 204.362 102.971 202.34 110.154 200.951C110.933 202.956 111.834 204.624 113.092 206.37C106.558 210.08 100.576 214.203 95.2672 219.532C94.4022 220.4 92.959 221.678 92.6083 222.874C92.5056 223.224 92.4941 223.095 92.6255 223.368C93.1685 223.379 93.5662 223.171 93.9435 222.794C94.9545 221.785 95.7553 220.578 96.7946 219.564C101.884 214.597 107.696 210.798 113.83 207.231C115.43 209.202 117.062 210.759 119.079 212.303C116.191 227.418 109.834 243.468 103.015 257.261C92.4565 278.621 78.7809 299.098 77.7575 323.623C69.5048 318.131 65.8136 313.57 63.8786 303.647C62.4902 296.526 62.9747 289.323 62.8065 282.12C62.3994 264.669 57.8051 246.489 42.3782 236.129C36.2058 231.984 26.908 227.966 19.2675 229.514C16.6916 230.036 14.1357 231.432 12.7046 233.679C11.7754 235.139 11.4117 236.866 11.8571 238.552C12.4926 240.957 14.477 242.881 16.6249 244.038C19.6422 245.663 23.3248 246.383 26.6007 247.378C36.1693 250.285 41.7252 256.572 44.6516 265.951C46.5212 271.944 46.7548 278.338 46.8563 284.571C47.0924 299.119 46.9214 314.147 56.0616 326.451C59.8064 331.493 64.3618 335.56 69.9451 338.506C74.7632 341.047 79.6271 342.506 85.0344 343.164C86.2746 344.734 87.9392 346.245 89.6205 347.338C91.0113 348.609 93.6701 350.378 95.5843 350.532L95.8388 350.827L95.7614 351.069C92.1468 351.204 88.458 351.018 84.8363 351.013C74.0688 350.998 63.2583 350.804 52.4952 351.023C51.7939 351.037 50.4309 350.938 49.946 351.441L50.0479 351.846C50.5328 352.103 50.9739 352.093 51.5111 352.111C61.8437 352.464 72.295 352.131 82.6411 352.124L131.577 352.258L300.829 352.115L336.18 352.23C339.43 352.24 347.814 352.661 350.371 352.035L350.455 351.759C350.02 351.361 349.596 351.168 349.007 351.11C346.447 350.857 342.221 351.118 339.438 351.101L314.652 351.066C317.528 349.94 320.107 348.619 322.326 346.436C328.546 340.318 328.785 334.217 328.784 326.094L328.777 315.547L328.761 314.291C328.904 308.254 328.637 302.166 328.666 296.119C328.597 294.781 328.673 293.461 328.75 292.128L328.759 291.968C328.224 290.141 328.645 285.754 328.651 283.732C328.671 277.611 328.507 271.492 328.487 265.371C328.473 261.406 328.789 257.134 328.306 253.209C328.188 252.218 327.996 251.242 327.732 250.279C327.469 249.316 327.135 248.377 326.732 247.463C324.184 241.678 319.363 238.184 313.582 235.96L312.681 235.719C308.534 234.747 303.88 235.127 299.639 235.13C293.489 235.166 287.339 235.153 281.189 235.09C280.17 231.161 278.437 226.623 275.534 223.687C271.585 219.695 266.786 219.644 261.53 219.677C259.265 219.691 257 219.665 254.735 219.651L253.106 219.678C247.639 219.654 240.755 218.956 236.482 223.079C233.475 225.979 231.883 231.323 230.445 235.183L214.624 235.235C205.533 235.246 197.796 234.467 190.831 241.499C188.159 244.196 186.153 247.722 185.448 251.458C184.718 255.324 185.071 259.618 185.08 263.551L185.089 281.123C185.193 297.459 184.953 313.815 185.182 330.147C185.276 336.846 187.626 341.978 192.462 346.653C194.58 348.701 196.8 350.068 199.577 351.055C189.606 351.126 179.635 351.129 169.663 351.063C172.856 349.003 175.062 346.101 176.745 342.743C180.297 335.661 181.986 327.08 181.732 319.219C181.405 309.135 177.734 299.798 175.636 290.05C173.952 282.226 172.972 274.274 171.403 266.427C169.597 257.39 166.821 245.838 164.302 236.976C163.593 234.481 162.218 230.465 160.832 226.506C159.529 222.783 158.215 219.109 157.435 216.796C156.702 219.819 159.462 231.509 159.041 234.598C158.39 239.365 157.559 244.101 156.55 248.806C155.408 254.039 151.771 269.108 147.089 271.848C146.495 272.195 145.831 272.296 145.171 272.083C142.85 271.334 140.479 267.577 139.412 265.504C138.588 263.902 137.971 262.192 137.46 260.47C136.003 255.555 127.081 218.09 127.5 216.824L127.637 216.872C129.598 217.545 133.315 218.821 135.259 218.778L135.287 218.778C135.737 218.768 135.759 218.767 136.1 218.424C135.909 217.557 134.607 217.612 133.822 217.474C126.369 216.164 119.462 212.564 114.669 206.681C118.662 204.327 122.994 202.83 127.412 201.482L127.657 200.974L127.668 200.968C127.578 200.933 127.49 200.895 127.399 200.863C124.846 199.967 116.474 204.451 113.985 205.686C112.889 204.166 112.029 202.602 111.322 200.87C113.432 200.283 115.619 199.866 117.758 199.383C122.458 198.249 126.953 197.107 131.327 194.976C138.384 191.537 138.922 187.634 148.015 188.272C152.61 189.343 155.656 192.829 160.561 192.846C165.102 193.526 170.192 193.717 174.791 193.614L174.941 193.755C175.261 194.921 174.089 197.871 173.749 199.118C170.295 198.471 166.085 197.339 162.576 197.531C162.078 197.558 162.181 197.58 161.881 197.916L161.921 198.275C162.671 198.721 171.553 199.89 173.357 200.261C171.522 204.275 168.528 208.066 165.136 210.898C162.78 212.865 160.089 214.114 157.423 215.581C157.114 215.751 156.348 216.109 156.161 216.363C156.064 216.494 156.058 216.672 156.007 216.826L156.3 217.047C156.705 217.005 157.05 216.937 157.435 216.796C165.05 214.005 171.109 207.61 174.484 200.44C182.738 202.247 190.401 204.852 198.138 208.232C201.453 209.68 205.334 212.695 208.792 213.333L209.034 213.159C207.482 211.562 205.16 210.514 203.195 209.491C200.968 208.318 198.702 207.226 196.396 206.215C194.09 205.204 191.751 204.277 189.378 203.432C187.005 202.588 184.604 201.829 182.177 201.155C179.749 200.482 177.3 199.896 174.83 199.398C175.401 197.502 175.853 195.587 176.305 193.662C183.2 193.7 190.083 194.685 196.884 195.732C200.191 196.241 205.005 197.701 208.223 197.365L208.296 197.149C204.336 194.59 182.16 192.778 176.529 192.606C176.711 188.954 176.843 185.326 176.026 181.727C175.688 180.238 175.027 178.805 174.795 177.3L175.173 176.862C174.434 176.706 174.375 176.475 173.967 175.868ZM153.822 162.063C149.731 161.388 145.7 160.869 141.555 161.354C143.466 161.791 145.672 161.522 147.639 161.601C149.149 161.663 150.664 161.901 152.161 162.101C152.556 162.154 153.615 162.411 153.935 162.24C154.361 162.011 154.636 161.567 154.923 161.19L155.108 161.251L154.908 162.121C155.431 162.801 157.602 163.353 158.461 163.708C158.948 163.067 159.416 162.422 159.866 161.754L159.816 161.629C159.287 162.184 158.781 162.741 158.301 163.338L154.945 162.125C157.323 158.04 166.336 150.965 170.861 149.659C171.399 149.504 171.801 149.505 172.348 149.597C172.876 149.981 173.019 150.26 173.11 150.908C173.535 153.925 172.51 161.848 171.826 164.973C171.412 166.857 170.806 168.658 170.147 170.469C169.602 169.872 168.823 168.497 168.169 168.198C167.257 167.791 166.349 167.025 165.486 166.499C163.542 165.316 161.731 164.485 159.58 163.73C160.103 162.946 160.729 162.22 161.318 161.484L160.981 161.28C160.312 161.987 159.591 162.674 159.462 163.677C159.634 164.038 159.572 164.079 159.957 164.253C160.337 164.425 160.188 164.347 160.519 164.549C160.182 164.583 159.984 164.666 159.675 164.517C155.509 162.5 150.296 162.075 145.721 161.954C144.786 161.929 143.578 161.767 142.706 162.064C144.562 162.227 146.449 161.933 148.287 162.335C142.971 162.278 137.771 162.572 132.56 163.707C130.646 164.124 128.622 165.119 126.713 165.34C125.013 165.271 123.209 166.199 121.549 166.618C122.646 166.063 125.531 165.407 126.134 164.501C126.062 164.207 126.013 163.962 125.99 163.659C126.438 164.157 126.618 164.382 127.288 164.589C127.859 164.512 128.177 164.335 128.648 164.031L128.817 163.921C129.995 163.252 131.559 162.916 132.884 162.658C133.234 162.716 133.052 162.736 133.419 162.534L133.642 161.475C133.247 161.162 132.875 160.907 132.639 160.45C135.54 159.855 138.616 159.628 141.558 159.257C146.951 158.577 152.474 157.735 157.91 157.67C156.487 159.072 155.001 160.446 153.822 162.063ZM116.288 168.883C115.842 168.598 115.743 168.39 115.543 167.909C114.892 163.486 115.092 158.897 114.991 154.435C119.548 156.917 122.965 160.157 125.861 164.445C123.301 165.374 120.792 166.423 118.334 167.593L118.181 167.682C117.585 168.036 116.959 168.816 116.288 168.883ZM136.09 181.559C136.297 181.768 136.481 181.989 136.668 182.215C137.462 183.854 138.164 185.669 137.572 187.499C136.923 189.507 135.53 189.851 134.012 190.932L131.15 191.671C132.089 188.692 133.554 186.615 133.339 183.312C133.268 182.215 133.007 180.752 132.028 180.069C131.61 179.777 131.106 179.695 130.622 179.865C129.858 180.132 129.292 180.893 128.957 181.592C127.424 184.796 128.47 188.496 129.671 191.611C128.545 191.358 127.513 191.113 126.533 190.467C125.133 189.547 124.12 188.207 123.789 186.557C123.413 184.682 124.024 183.103 125.047 181.559C126.496 180.098 128.058 179.144 130.189 179.081C132.419 179.015 134.542 179.994 136.09 181.559ZM167.199 185.33C166.723 188.962 165.408 188.718 163.448 190.922C162.972 191.131 162.49 191.342 161.988 191.481C160.028 192.023 157.616 191.739 155.878 190.675C153.98 189.513 153.415 187.918 152.985 185.876C153.127 183.557 153.52 181.527 155.357 179.895C156.87 178.55 158.909 178.017 160.909 178.167C162.82 178.312 164.63 179.148 165.863 180.625C166.963 181.943 167.421 183.638 167.199 185.33ZM119.837 212.864C120.949 213.557 122.043 214.297 123.256 214.806C119.507 227.187 115.404 239.568 110.193 251.428C106.953 258.855 103.558 266.212 100.008 273.499C97.6696 278.271 95.3839 283.067 93.1509 287.888C87.5308 299.718 82.2082 311.613 81.6824 324.926C81.5183 329.08 82.1214 333.461 83.5728 337.37C84.0785 338.731 85.1101 340.284 85.2296 341.721C84.302 340.587 83.4656 339.418 82.7176 338.158C80.6905 334.748 79.2404 330.735 78.8071 326.79C78.4728 323.748 78.8018 320.593 79.1868 317.566C81.4549 299.733 90.4306 283.89 98.6564 268.22C101.891 262.165 104.896 255.999 107.672 249.724C111.533 241.094 115.026 232.183 117.523 223.062C118.446 219.693 118.962 216.242 119.837 212.864ZM239.895 227.218C242.235 224.937 245.571 225.249 248.581 225.261L249.915 225.292C254.163 225.334 264.074 224.807 267.607 225.62C269.187 225.983 270.598 226.73 271.758 227.859C273.78 229.828 274.709 232.456 275.529 235.079L243.897 235.133C242.361 235.268 240.857 235.264 239.317 235.23L236.185 235.237C237.025 232.585 237.842 229.219 239.895 227.218ZM214.903 236.329L214.891 239.343L214.876 244.987C212.285 246.85 209.97 249.372 207.647 251.567C202.09 256.818 196.706 262.228 191.231 267.559L191.123 267.667C189.536 269.255 187.96 270.833 186.243 272.287L186.204 260.909L186.203 260.702C186.184 253.543 186.169 247.773 191.636 242.312C198.533 235.422 205.933 236.308 214.903 236.329ZM230.733 236.304C230.798 238.428 230.72 240.569 230.699 242.694L230.648 295.66C228.613 295.669 226.575 295.652 224.542 295.77L215.875 295.739C215.743 288.124 215.87 280.492 215.882 272.875L215.886 236.322C220.835 236.262 225.784 236.256 230.733 236.304ZM214.829 246.341L214.797 262.14L214.819 295.703L214.75 295.744C213.585 296.435 212.693 296.965 212.374 298.381C211.806 300.899 211.906 314.259 212.265 317.1C213.02 318.191 213.692 318.822 214.853 319.458L214.769 350.977C212.005 351.002 206.548 351.428 203.993 350.891C203.693 350.88 203.393 350.861 203.094 350.835C198.566 350.41 194.548 347.687 191.693 344.298C189.018 341.604 187.272 337.74 186.577 334.051C186.035 331.173 186.212 328.124 186.219 325.206L186.232 314.429L186.15 273.737L186.754 273.286C188.368 272.097 189.667 270.627 191.092 269.23C192.923 267.05 195.427 265.019 197.468 262.99L198.056 262.406C203.543 256.953 209.047 251.484 214.829 246.341ZM215.88 296.826L226.027 296.813L230.617 296.833L230.613 318.483C227.176 318.513 218.883 318.985 215.887 318.394L215.88 296.826ZM215.813 319.579L226.179 319.581L230.638 319.607C230.668 330.063 230.755 340.542 230.594 350.996C227.1 351.025 218.622 351.457 215.834 350.905C215.59 340.488 215.717 330 215.813 319.579ZM280.628 319.552C285.462 319.479 290.49 319.812 295.293 319.401L295.741 319.659C296.111 322.455 295.861 325.532 295.859 328.357C295.856 331.658 296.082 335.237 295.712 338.509C295.863 342.671 295.792 346.854 295.806 351.019L280.751 351.018C280.585 340.53 280.544 330.041 280.628 319.552ZM136.801 330.7C137.83 337.499 139.153 344.283 140.041 351.098L138.914 351.137C138.125 345.579 137.105 340.063 136.228 334.52L131.883 305.641L130.434 296.197C130.155 294.487 129.734 292.767 129.597 291.04C129.561 290.584 129.579 290.271 129.813 289.862C130.106 289.885 130.132 289.824 130.313 290.019C130.65 290.382 130.744 290.949 130.823 291.431L130.833 291.49C131.885 297.816 132.703 304.197 133.651 310.541L136.801 330.7ZM114.38 136.694C120.032 129.459 127.851 125.817 136.867 124.656C140.421 123.974 146.349 124.581 149.865 125.553C150.351 125.69 150.832 125.839 151.31 125.999C151.788 126.159 152.262 126.331 152.731 126.514C153.201 126.697 153.665 126.892 154.125 127.097C154.585 127.303 155.04 127.519 155.49 127.747C155.939 127.974 156.383 128.213 156.82 128.461C157.258 128.71 157.69 128.97 158.115 129.239C158.54 129.509 158.958 129.789 159.37 130.078C159.781 130.368 160.186 130.668 160.582 130.977C160.979 131.286 161.368 131.604 161.749 131.932C162.131 132.26 162.504 132.597 162.869 132.944C163.233 133.289 163.589 133.644 163.937 134.007C164.284 134.37 164.623 134.742 164.952 135.121C165.282 135.5 165.602 135.887 165.912 136.282C166.222 136.677 166.523 137.079 166.814 137.488C167.105 137.898 167.385 138.314 167.656 138.736C167.926 139.159 168.186 139.588 168.435 140.024C165.575 139.776 162.709 139.616 159.839 139.543C156.968 139.47 154.098 139.485 151.228 139.588C148.358 139.691 145.495 139.881 142.637 140.159C139.779 140.437 136.932 140.802 134.097 141.253C125.493 142.583 116.308 144.838 108.332 148.298C109.663 144.174 111.703 140.122 114.38 136.694ZM118.951 150.108C129.237 147.564 139.619 145.791 150.206 145.18C155.972 144.815 162.191 144.96 167.913 145.755C171.402 146.24 174.852 147.321 178.276 148.147C182.898 149.263 187.472 150.514 192.064 151.743C196.979 153.059 201.942 154.292 206.63 156.294C195.744 155.647 184.851 155.496 173.951 155.841C174.083 154.004 174.474 151.767 173.894 150C173.641 149.229 173.256 148.988 172.565 148.662C167.533 148.941 162.654 153.143 159.137 156.397C153.349 156.577 147.602 157.321 141.869 158.089C138.463 158.545 135.017 158.924 131.642 159.575C127.495 156.312 123.053 153.416 118.951 150.108ZM101.87 158.706C104.591 156.903 107.376 155.203 110.225 153.606L110.523 153.676C111.132 154.94 110.326 163.097 110.232 165.015C100.348 167.786 90.6235 171.029 81.0596 174.746L80.8022 174.686C82.5134 172.3 98.5005 160.941 101.87 158.706ZM236.109 225.199C238.169 222.428 240.972 221.404 244.25 220.92C247.532 220.565 251.149 220.851 254.467 220.849C258.644 220.847 263.097 220.508 267.24 220.988C268.695 221.156 270.146 221.534 271.47 222.162C276.593 224.592 278.283 230.129 280.028 235.052L276.623 235.067C276.141 232.866 275.198 230.517 273.908 228.653C272.171 226.14 269.979 224.89 267.006 224.364C262.729 223.925 258.283 224.187 253.979 224.179C250.791 224.174 247.429 223.916 244.267 224.24C243.081 224.361 241.915 224.635 240.857 225.195C237.338 227.056 236.253 231.741 235.218 235.254C233.986 235.24 232.754 235.219 231.521 235.191L231.54 235.138C232.692 231.805 233.99 228.05 236.109 225.199ZM231.671 236.314C236.72 236.312 241.769 236.275 246.818 236.201C253.217 236.133 259.616 236.104 266.015 236.114C270.499 236.108 275.041 235.983 279.518 236.252L279.505 274.479C279.506 281.519 279.243 288.678 279.643 295.7C278.634 296.109 277.652 296.466 277.091 297.456C276.32 298.815 276.346 315.556 276.912 317.121C277.375 318.401 278.524 318.976 279.677 319.544C279.551 330.04 279.519 340.535 279.579 351.032L264.482 351.02L244.182 351.005C240.023 351.004 235.824 351.12 231.67 350.889L231.639 319.585L231.722 319.526C232.618 318.887 233.5 318.258 233.936 317.208C234.771 315.197 234.847 299.511 234.011 297.553C233.59 296.568 232.585 296.244 231.673 295.856C231.796 276.009 231.795 256.161 231.671 236.314ZM280.709 295.729L280.629 236.296C285.707 236.245 290.786 236.241 295.864 236.283L295.884 270.791C295.887 279.077 296.018 287.384 295.831 295.668C290.792 295.621 285.753 295.791 280.709 295.729ZM296.845 243.671C296.707 241.225 296.765 238.75 296.755 236.3C306.096 236.316 314.592 234.986 321.814 242.207C327.562 247.953 327.415 253.963 327.433 261.495L327.448 272.825C323.137 269.065 319.128 264.903 315.031 260.912C309.066 255.065 303.004 249.318 296.845 243.671ZM296.831 295.675L296.815 245.292C299.676 247.345 302.265 250.222 304.824 252.651C312.41 259.852 319.612 267.611 327.575 274.387L327.7 310.953C327.716 318.116 328.047 325.456 327.629 332.602C327.293 338.346 324.42 343.085 320.169 346.862C313.366 352.149 304.824 350.998 296.718 351.031L296.727 319.545L296.814 319.508C297.686 319.135 298.733 318.687 299.274 317.889C300.598 315.934 300.324 300.843 299.939 298.038C298.987 296.782 298.338 296.211 296.831 295.675ZM277.697 299.162C277.847 297.99 278.512 297.447 279.418 296.784C280.025 297.65 279.779 315.878 279.653 318.101L279.315 318.195L278.541 317.72C278.146 317.185 277.855 316.716 277.728 316.056C277.194 313.281 277.316 302.138 277.697 299.162ZM280.693 318.402C280.612 311.209 280.607 304.016 280.678 296.823C285.708 296.683 290.784 296.818 295.819 296.816C296 304.002 295.91 311.211 295.904 318.399C290.846 318.56 285.753 318.447 280.693 318.402ZM296.956 318.085C296.723 316.008 296.717 298.158 297.073 296.841L297.086 296.849C297.904 297.35 298.595 297.773 298.87 298.748C299.45 300.801 299.318 313.159 298.931 315.591C298.828 316.242 298.579 316.797 298.272 317.375C297.867 317.724 297.501 318.097 296.956 318.085ZM213.225 299.945C213.276 298.497 213.55 297.99 214.614 297.005C214.738 297.148 214.828 297.34 214.869 297.522C215.277 299.369 214.894 302.441 214.899 304.409C214.91 308.655 215.198 313.01 214.961 317.243C214.944 317.549 214.874 317.764 214.732 318.034L214.253 317.963C213.918 317.515 213.545 317.059 213.409 316.507C212.762 313.884 213.108 303.227 213.225 299.945ZM231.535 309.537C231.563 305.338 231.456 301.123 231.623 296.928C232.329 297.323 233 297.767 233.197 298.608C233.639 300.492 233.515 314.14 233.168 316.111C233.069 316.677 232.789 317.166 232.497 317.654L231.844 318.093L231.568 318.007C231.267 315.271 231.517 312.298 231.535 309.537Z" fill="#1A1A1A"/>
<path d="M115.543 167.909C115.743 168.39 115.842 168.598 116.288 168.883C116.959 168.816 117.585 168.036 118.181 167.682L118.334 167.593C120.792 166.423 123.301 165.374 125.861 164.445C122.965 160.157 119.548 156.917 114.991 154.435C115.092 158.897 114.892 163.486 115.543 167.909Z" fill="white"/>
<path d="M170.845 171.006C171.881 172.627 172.893 174.271 173.967 175.868C174.375 176.475 174.434 176.706 175.173 176.862C178.85 175.367 182.89 174.492 186.71 173.394C194.353 171.195 205.012 167.354 211.262 162.53C212.264 161.757 213.264 160.924 213.427 159.614C213.355 159.316 213.292 159.07 213.061 158.844C211.94 157.752 209.789 157.6 208.299 157.517C201.82 157.399 195.341 157.056 188.861 156.916C183.845 156.808 178.813 156.877 173.795 156.888C173.326 161.759 172.652 166.418 170.845 171.006Z" fill="white"/>
<path d="M109.593 184.033C110.221 182.351 111.653 180.132 111.276 179.012C110.336 174.692 110.154 170.638 110.167 166.243C104.326 167.794 78.2346 175.68 75.5197 179.365C75.1682 179.842 74.9076 180.477 75.0921 181.07C76.2485 184.784 95.9607 184.425 99.5157 184.32C101.298 184.267 108.232 183.448 109.593 184.033Z" fill="white"/>
<path d="M141.555 161.354C145.7 160.869 149.731 161.388 153.822 162.063C155.001 160.446 156.487 159.072 157.91 157.67C152.474 157.735 146.951 158.577 141.558 159.257C138.616 159.628 135.54 159.855 132.639 160.45C132.875 160.907 133.247 161.162 133.642 161.475L133.419 162.534C133.052 162.736 133.234 162.716 132.884 162.658C131.559 162.916 129.995 163.252 128.817 163.921L128.648 164.031C128.177 164.335 127.859 164.512 127.288 164.589C126.618 164.382 126.438 164.157 125.99 163.659C126.013 163.962 126.062 164.207 126.134 164.501C125.531 165.407 122.646 166.063 121.549 166.618C123.209 166.199 125.013 165.271 126.713 165.34C128.622 165.119 130.646 164.124 132.56 163.707C137.771 162.572 142.971 162.278 148.287 162.335C146.449 161.933 144.562 162.227 142.706 162.064C143.578 161.767 144.786 161.929 145.721 161.954C150.296 162.075 155.509 162.5 159.675 164.517C159.984 164.666 160.182 164.583 160.519 164.549C160.188 164.347 160.337 164.425 159.957 164.253C159.572 164.079 159.634 164.038 159.462 163.677C159.591 162.674 160.312 161.987 160.981 161.28L161.318 161.484C160.729 162.22 160.103 162.946 159.58 163.73C161.731 164.485 163.542 165.316 165.486 166.499C166.349 167.025 167.257 167.791 168.169 168.198C168.823 168.497 169.602 169.872 170.147 170.469C170.806 168.658 171.412 166.857 171.826 164.973C172.51 161.848 173.535 153.925 173.11 150.908C173.019 150.26 172.876 149.981 172.348 149.597C171.801 149.505 171.399 149.504 170.861 149.659C166.336 150.965 157.323 158.04 154.945 162.125L158.301 163.338C158.781 162.741 159.287 162.184 159.816 161.629L159.866 161.754C159.416 162.422 158.948 163.067 158.461 163.708C157.602 163.353 155.431 162.801 154.908 162.121L155.108 161.251L154.923 161.19C154.636 161.567 154.361 162.011 153.935 162.24C153.615 162.411 152.556 162.154 152.161 162.101C150.664 161.901 149.149 161.663 147.639 161.601C145.672 161.522 143.466 161.791 141.555 161.354Z" fill="white"/>
<path d="M123.256 214.806C122.043 214.297 120.949 213.557 119.837 212.864C118.962 216.242 118.446 219.693 117.523 223.062C115.026 232.183 111.533 241.094 107.672 249.724C104.896 255.999 101.891 262.165 98.6564 268.22C90.4306 283.89 81.4549 299.733 79.1868 317.566C78.8018 320.593 78.4728 323.748 78.8071 326.79C79.2404 330.735 80.6905 334.748 82.7176 338.158C83.4656 339.418 84.302 340.587 85.2296 341.721C85.1101 340.284 84.0785 338.731 83.5728 337.37C82.1214 333.461 81.5183 329.08 81.6824 324.926C82.2082 311.613 87.5308 299.718 93.1509 287.888C95.3839 283.067 97.6696 278.271 100.008 273.499C103.558 266.212 106.953 258.855 110.193 251.428C115.404 239.568 119.507 227.187 123.256 214.806Z" fill="white"/>
<path d="M108.332 148.298C109.663 144.174 111.703 140.122 114.38 136.694C120.032 129.459 127.851 125.817 136.867 124.656C140.421 123.974 146.349 124.581 149.865 125.553C150.351 125.69 150.832 125.839 151.31 125.999C151.788 126.159 152.262 126.331 152.731 126.514C153.201 126.697 153.665 126.892 154.125 127.097C154.585 127.303 155.04 127.519 155.49 127.747C155.939 127.974 156.383 128.213 156.82 128.461C157.258 128.71 157.69 128.97 158.115 129.239C158.54 129.509 158.958 129.789 159.37 130.078C159.781 130.368 160.186 130.668 160.582 130.977C160.979 131.286 161.368 131.604 161.749 131.932C162.131 132.26 162.504 132.597 162.869 132.944C163.234 133.289 163.59 133.644 163.937 134.007C164.284 134.37 164.623 134.742 164.952 135.121C165.282 135.5 165.602 135.887 165.912 136.282C166.222 136.677 166.523 137.079 166.814 137.488C167.105 137.898 167.385 138.314 167.656 138.736C167.926 139.159 168.186 139.588 168.435 140.024C165.575 139.776 162.709 139.616 159.839 139.543C156.968 139.47 154.098 139.485 151.228 139.588C148.359 139.691 145.495 139.881 142.637 140.159C139.779 140.437 136.932 140.802 134.097 141.253C125.493 142.583 116.308 144.838 108.332 148.298Z" fill="#F0D379"/>
<path d="M118.951 150.108C129.237 147.564 139.619 145.791 150.206 145.18C155.972 144.815 162.191 144.96 167.913 145.755C171.402 146.24 174.852 147.321 178.276 148.147C182.898 149.263 187.472 150.514 192.064 151.743C196.979 153.059 201.942 154.292 206.63 156.294C195.744 155.647 184.851 155.496 173.951 155.841C174.083 154.004 174.474 151.767 173.894 150C173.641 149.229 173.256 148.988 172.565 148.662C167.533 148.941 162.654 153.143 159.137 156.397C153.349 156.577 147.602 157.321 141.869 158.089C138.463 158.545 135.017 158.924 131.642 159.575C127.495 156.311 123.053 153.416 118.951 150.108Z" fill="#F0D379"/>
<path d="M133.642 161.475C133.854 161.667 134.206 161.967 134.488 162.027C136.031 162.355 139.58 161.328 141.555 161.354C143.466 161.791 145.672 161.522 147.639 161.601C149.149 161.663 150.664 161.901 152.161 162.101C152.556 162.154 153.615 162.411 153.934 162.24C154.361 162.011 154.636 161.567 154.923 161.19L155.108 161.251L154.908 162.121C155.431 162.801 157.602 163.353 158.461 163.708C158.948 163.067 159.416 162.422 159.866 161.754L159.816 161.629C159.287 162.184 158.781 162.741 158.301 163.338L154.945 162.125C157.323 158.04 166.336 150.965 170.861 149.659C171.399 149.504 171.801 149.505 172.348 149.597C172.876 149.981 173.019 150.26 173.11 150.908C173.535 153.925 172.51 161.848 171.825 164.973C171.412 166.857 170.806 168.658 170.147 170.469C169.602 169.872 168.823 168.497 168.169 168.198C168.231 166.147 169.071 163.917 169.475 161.892C169.939 159.57 170.136 157.161 170.422 154.808C166.878 156.294 164.082 158.889 161.318 161.484L160.981 161.28C160.312 161.987 159.591 162.674 159.462 163.677C159.634 164.038 159.572 164.079 159.957 164.253C160.337 164.425 160.188 164.347 160.519 164.549C160.182 164.583 159.984 164.666 159.675 164.517C155.509 162.5 150.296 162.075 145.721 161.954C144.786 161.929 143.578 161.767 142.706 162.064C144.562 162.227 146.449 161.933 148.287 162.335C142.971 162.278 137.771 162.572 132.56 163.707C130.646 164.124 128.622 165.119 126.713 165.34C125.013 165.271 123.209 166.199 121.549 166.618C122.646 166.063 125.53 165.407 126.134 164.501C126.062 164.207 126.012 163.962 125.99 163.659C126.438 164.157 126.618 164.382 127.287 164.589C127.859 164.512 128.177 164.335 128.648 164.031L128.817 163.921C129.995 163.252 131.558 162.916 132.884 162.658C133.234 162.716 133.052 162.736 133.419 162.534L133.642 161.475Z" fill="url(#paint0_linear_2348_320)"/>
<path d="M81.0596 174.746L80.8022 174.686C82.5134 172.3 98.5005 160.941 101.87 158.706C104.591 156.903 107.376 155.203 110.225 153.606L110.523 153.676C111.132 154.94 110.326 163.097 110.232 165.015C100.348 167.786 90.6235 171.029 81.0596 174.746Z" fill="#F0D379"/>
<path d="M160.767 190.292C160.157 190.652 159.918 190.667 159.226 190.534C158.616 190.081 158.401 189.648 158.162 188.946C157.137 185.936 157.059 181.937 158.479 179.05C158.863 179.138 159.197 179.25 159.537 179.448C160.834 180.202 161.61 181.562 161.966 182.975C162.612 185.54 162.143 188.057 160.767 190.292Z" fill="#1A1A1A"/>
<path d="M146.051 198.023C145.615 198.044 144.108 200.649 143.068 201.06C142.251 201.382 141.438 201.188 140.68 200.806C140.14 200.534 139.691 200.218 139.515 199.621C139.904 199.208 139.917 199.306 140.452 199.248C140.874 199.549 141.4 199.983 141.894 200.152C142.36 200.311 142.835 200.154 143.231 199.903C143.979 199.429 144.712 198.257 144.86 197.397C145.144 195.75 143.498 194.43 142.616 193.219C142.585 192.951 142.471 192.698 142.653 192.468C143.183 191.796 144.339 191.586 145.142 191.479C146.167 191.509 147.528 191.427 148.412 192.007C149.756 192.888 146.789 195.745 147.217 197.557C147.502 198.761 148.611 199.654 149.596 200.299C150.394 199.88 151.245 199.267 152.178 199.427L152.366 199.736C152.204 200.138 152.012 200.355 151.64 200.592C150.864 201.087 149.888 201.249 149.001 200.989C147.479 200.544 146.762 199.312 146.051 198.023Z" fill="#1A1A1A"/>
<path d="M348.428 301.524C349.256 300.26 350.693 299.034 351.712 297.885C353.512 295.815 355.17 293.637 356.685 291.352C356.957 290.934 357.224 290.512 357.485 290.088C357.747 289.663 358.003 289.235 358.253 288.804C358.504 288.373 358.75 287.939 358.99 287.501C359.23 287.064 359.465 286.625 359.694 286.182C359.923 285.739 360.147 285.294 360.365 284.845C360.583 284.397 360.796 283.946 361.003 283.493C361.21 283.04 361.412 282.584 361.608 282.126C361.804 281.667 361.994 281.206 362.178 280.744C362.363 280.281 362.541 279.816 362.714 279.348C362.887 278.881 363.055 278.412 363.216 277.94C363.377 277.469 363.533 276.996 363.683 276.521C363.833 276.046 363.976 275.569 364.114 275.09C364.252 274.612 364.384 274.131 364.51 273.65C364.636 273.168 364.756 272.684 364.871 272.199C364.985 271.715 365.093 271.229 365.195 270.741C365.297 270.254 365.393 269.765 365.483 269.275C365.574 268.786 365.658 268.295 365.735 267.803C365.813 267.311 365.885 266.819 365.951 266.325C366.017 265.832 366.077 265.338 366.13 264.842C366.184 264.347 366.231 263.852 366.273 263.356C366.314 262.859 366.349 262.363 366.378 261.866C366.407 261.369 366.43 260.872 366.447 260.374C366.464 259.877 366.475 259.379 366.479 258.881C366.484 258.383 366.482 257.886 366.474 257.388C366.466 256.89 366.452 256.392 366.433 255.895C366.412 255.398 366.386 254.9 366.354 254.404C366.321 253.907 366.283 253.41 366.238 252.915C366.194 252.419 366.143 251.923 366.086 251.429C366.029 250.934 365.966 250.441 365.897 249.947C365.828 249.454 365.753 248.962 365.672 248.471C365.591 247.979 365.504 247.489 365.41 247C365.317 246.511 365.218 246.023 365.113 245.536C361.804 230.23 351.879 216.664 338.717 208.18C324.335 198.91 304.913 195.579 288.187 199.146C286.814 199.439 281.903 200.194 281.258 201.185L281.979 202.321C283.694 204.131 285.367 205.95 287.233 207.609C286.828 207.48 286.429 207.345 286.031 207.196L285.721 207.504C283.939 206.364 282.366 204.21 281.016 202.59L280.047 201.32C277.947 202.18 274.94 203.893 272.975 204.464C272.624 204.187 272.299 204.13 271.868 204.031C286.655 195.831 305.356 194.779 321.509 199.336C322.017 199.474 322.523 199.618 323.028 199.769C323.532 199.92 324.034 200.076 324.535 200.239C325.035 200.402 325.534 200.572 326.03 200.747C326.526 200.922 327.02 201.104 327.512 201.292C328.003 201.479 328.492 201.673 328.979 201.873C329.466 202.073 329.95 202.278 330.432 202.49C330.913 202.702 331.392 202.92 331.868 203.143C332.345 203.367 332.818 203.597 333.288 203.832C333.758 204.067 334.226 204.308 334.69 204.555C335.155 204.802 335.616 205.055 336.073 205.313C336.531 205.572 336.986 205.836 337.438 206.106C337.889 206.375 338.337 206.65 338.781 206.931C339.225 207.212 339.666 207.498 340.103 207.79C340.541 208.082 340.974 208.379 341.404 208.681C341.834 208.983 342.259 209.291 342.681 209.604C343.103 209.917 343.521 210.235 343.935 210.559C344.349 210.882 344.759 211.21 345.165 211.544C345.571 211.877 345.972 212.216 346.369 212.559C346.766 212.903 347.159 213.251 347.548 213.604C347.936 213.957 348.32 214.315 348.7 214.678C349.079 215.041 349.454 215.408 349.824 215.78C350.194 216.152 350.56 216.529 350.921 216.91C351.281 217.291 351.637 217.676 351.988 218.066C352.339 218.456 352.685 218.85 353.027 219.249C353.368 219.647 353.704 220.05 354.035 220.456C354.366 220.863 354.692 221.274 355.012 221.689C355.333 222.104 355.649 222.523 355.959 222.945C356.269 223.368 356.574 223.794 356.873 224.224C357.172 224.655 357.466 225.089 357.755 225.526C358.044 225.964 358.327 226.405 358.604 226.849C358.882 227.294 359.153 227.742 359.419 228.193C359.685 228.644 359.946 229.099 360.201 229.556C368.117 243.679 369.57 260.215 365.123 275.68C362.499 284.806 355.54 297.059 348.089 303.106C348.411 302.697 348.788 302.324 348.86 301.793L348.428 301.524Z" fill="#DFA85E"/>
<path d="M253.106 219.678C258.34 213.33 264.861 208.297 271.868 204.031C272.299 204.13 272.624 204.187 272.975 204.464C266.12 208.767 259.72 213.174 254.735 219.651L253.106 219.678Z" fill="#AC731F"/>
<path d="M285.721 207.503L286.031 207.196C286.429 207.345 286.828 207.48 287.233 207.609C288.473 208.519 289.731 209.56 291.087 210.292C296.915 213.437 302.757 214.693 307.185 220.104C307.337 220.497 307.487 220.888 307.62 221.288L307.16 221.498C299.991 213.451 292.764 214.032 285.721 207.503Z" fill="#AC731F"/>
<path d="M119.837 212.864C120.948 213.557 122.043 214.297 123.256 214.806C119.507 227.187 115.404 239.568 110.193 251.428C106.953 258.855 103.558 266.212 100.008 273.499C97.6696 278.271 95.3839 283.067 93.1509 287.888C87.5308 299.718 82.2082 311.613 81.6824 324.926C81.5183 329.08 82.1214 333.461 83.5728 337.37C84.0785 338.731 85.1101 340.284 85.2296 341.721C84.3019 340.587 83.4656 339.418 82.7176 338.158C80.6905 334.748 79.2404 330.735 78.8071 326.79C78.4728 323.748 78.8018 320.593 79.1868 317.566C81.4549 299.733 90.4306 283.89 98.6564 268.22C101.891 262.165 104.896 255.999 107.672 249.724C111.533 241.094 115.026 232.183 117.523 223.062C118.446 219.693 118.962 216.242 119.837 212.864Z" fill="black"/>
<path d="M307.185 220.104C311.41 224.662 313.383 229.803 313.582 235.96L312.681 235.719C312.406 234.586 312.309 233.351 312.089 232.198C311.296 228.037 309.839 224.79 307.16 221.498L307.62 221.288C307.487 220.888 307.337 220.497 307.185 220.104Z" fill="#DFA85E"/>
<path d="M248.581 225.261L249.915 225.292C248.422 227.388 247.065 229.528 245.693 231.703C245.069 232.835 244.444 233.961 243.897 235.133C242.361 235.268 240.857 235.264 239.317 235.23C240.421 235.141 241.553 235.151 242.661 235.119C243.491 233.661 244.342 232.216 245.217 230.784C245.95 228.885 247.469 226.976 248.581 225.261Z" fill="#AC731F"/>
<path d="M231.671 236.314C236.72 236.312 241.769 236.274 246.818 236.201C253.217 236.133 259.616 236.104 266.015 236.114C270.499 236.108 275.041 235.983 279.518 236.252L279.505 274.479C279.506 281.519 279.243 288.678 279.643 295.7C278.634 296.109 277.652 296.466 277.091 297.456C276.32 298.815 276.346 315.556 276.912 317.121C277.375 318.401 278.524 318.976 279.677 319.544C279.551 330.04 279.519 340.536 279.579 351.032L264.482 351.02L244.182 351.005C240.023 351.004 235.824 351.12 231.67 350.889L231.639 319.585C232.564 318.925 233.486 318.291 233.936 317.208C234.771 315.197 234.847 299.511 234.011 297.553C233.59 296.568 232.585 296.244 231.673 295.856C231.796 276.009 231.796 256.161 231.671 236.314Z" fill="#DFA85E"/>
<path d="M296.845 243.671C296.707 241.226 296.765 238.75 296.755 236.3C306.096 236.316 314.592 234.986 321.814 242.207C327.562 247.953 327.415 253.963 327.433 261.495L327.448 272.825C323.137 269.065 319.128 264.903 315.031 260.912C309.066 255.065 303.004 249.318 296.845 243.671Z" fill="#DFA85E"/>
<path d="M191.231 267.559C191.222 267.294 191.216 267.03 191.213 266.765L191.164 259.384C191.139 253.904 191.345 248.953 195.469 244.823C201.107 239.178 207.411 239.411 214.891 239.343L214.876 244.987C212.285 246.85 209.97 249.372 207.647 251.567C202.09 256.818 196.706 262.228 191.231 267.559Z" fill="#DFA85E"/>
<path d="M296.831 295.675L296.815 245.292C299.676 247.345 302.265 250.222 304.824 252.651C312.41 259.852 319.612 267.611 327.575 274.387L327.7 310.953C327.716 318.116 328.047 325.456 327.629 332.603C327.293 338.346 324.42 343.085 320.169 346.862C313.366 352.149 304.824 350.998 296.718 351.031L296.727 319.545C297.615 319.165 298.715 318.714 299.274 317.889C300.598 315.934 300.324 300.843 299.939 298.038C298.987 296.782 298.338 296.211 296.831 295.675Z" fill="#DFA85E"/>
<path d="M214.829 246.341L214.797 262.14L214.819 295.703C213.621 296.414 212.699 296.937 212.374 298.381C211.806 300.899 211.906 314.259 212.265 317.1C213.02 318.191 213.692 318.822 214.853 319.458L214.768 350.977C212.005 351.001 206.548 351.428 203.993 350.891C203.693 350.88 203.393 350.861 203.094 350.835C198.566 350.41 194.548 347.686 191.693 344.298C191.816 343.942 191.849 344.005 191.813 343.713C191.64 342.304 191.419 340.968 191.36 339.54C191.024 331.287 191.877 270.811 191.092 269.229C192.923 267.05 195.427 265.019 197.468 262.99C203.15 257.345 208.84 251.667 214.829 246.341Z" fill="#DFA85E"/>
<path d="M328.759 291.968C334.52 295.884 340.305 299.732 345.999 303.745C346.815 303.012 347.625 302.271 348.428 301.524L348.86 301.793C348.788 302.324 348.411 302.697 348.089 303.105C343.835 308.227 334.777 312.731 328.777 315.546L328.761 314.291C334.931 311.785 340.25 308.268 345.485 304.211C339.97 300.435 334.449 296.723 328.8 293.143C328.786 294.136 328.723 295.127 328.666 296.119C328.595 294.728 328.68 293.356 328.759 291.968Z" fill="#AC731F"/>
<path d="M278.541 317.72C278.146 317.185 277.855 316.716 277.728 316.056C277.194 313.281 277.316 302.138 277.697 299.162C277.847 297.99 278.512 297.447 279.418 296.784C280.025 297.65 279.779 315.878 279.653 318.101L279.315 318.195L278.541 317.72Z" fill="#DFA85E"/>
<path d="M298.272 317.375C297.867 317.724 297.501 318.097 296.956 318.085C296.723 316.008 296.717 298.158 297.073 296.841C297.897 297.345 298.593 297.768 298.87 298.748C299.45 300.801 299.318 313.159 298.931 315.591C298.828 316.242 298.579 316.797 298.272 317.375Z" fill="#AC731F"/>
<path d="M214.253 317.963C213.918 317.515 213.545 317.059 213.409 316.507C212.762 313.884 213.108 303.227 213.225 299.945C213.276 298.497 213.55 297.99 214.614 297.005C214.738 297.148 214.828 297.34 214.869 297.522C215.277 299.369 214.894 302.441 214.899 304.409C214.91 308.655 215.198 313.01 214.961 317.243C214.944 317.549 214.874 317.764 214.732 318.034L214.253 317.963Z" fill="#DFA85E"/>
<path d="M232.497 317.654L231.844 318.093L231.568 318.007C231.267 315.271 231.517 312.298 231.535 309.537C231.563 305.338 231.456 301.123 231.623 296.928C232.329 297.322 233 297.767 233.197 298.608C233.639 300.492 233.515 314.14 233.168 316.111C233.069 316.677 232.789 317.166 232.497 317.654Z" fill="#DFA85E"/>
<path d="M295.293 319.401L295.741 319.659C296.111 322.455 295.861 325.532 295.859 328.357C295.856 331.658 296.082 335.237 295.712 338.509C295.358 333.611 294.985 329.166 295.007 324.203C295.014 322.66 294.905 320.893 295.293 319.401Z" fill="#C4C9F0"/>
</g>
</g>
<defs>
<linearGradient id="paint0_linear_2348_320" x1="122.349" y1="171.404" x2="174.575" y2="158.482" gradientUnits="userSpaceOnUse">
<stop/>
<stop offset="1" stop-color="#353539"/>
</linearGradient>
<clipPath id="clip0_2348_320">
<rect width="419" height="416" fill="white" transform="translate(-20 -30)"/>
</clipPath>
</defs>
</svg>
