<svg width="60" height="60" viewBox="0 0 60 60" fill="none" xmlns="http://www.w3.org/2000/svg">
<path d="M30 0C46.5685 0 60 13.4315 60 30C60 46.5685 46.5685 60 30 60C13.4315 60 0 46.5685 0 30C0 13.4315 13.4315 0 30 0ZM29.667 17C25.9781 17 23.2775 17.4276 21.5664 18.2832C19.8555 19.1387 19.0001 20.4888 19 22.333V35C19 35.6443 19.1219 36.2388 19.3662 36.7832C19.6106 37.3276 19.9331 37.8222 20.333 38.2666V41C20.333 41.3778 20.4612 41.6946 20.7168 41.9502C20.9723 42.2056 21.2893 42.333 21.667 42.333H23C23.3778 42.333 23.6946 42.2057 23.9502 41.9502C24.2057 41.6946 24.333 41.3778 24.333 41V39.667H35V41C35 41.3777 35.1274 41.6947 35.3828 41.9502C35.6383 42.2057 35.9554 42.3329 36.333 42.333H37.667C38.0445 42.3329 38.3608 42.2055 38.6162 41.9502C38.8718 41.6946 39 41.3778 39 41V38.2666C39.4 37.8222 39.7224 37.3276 39.9668 36.7832C40.2112 36.2388 40.333 35.6444 40.333 35V22.333C40.3329 20.4221 39.5106 19.0556 37.8662 18.2334C36.2218 17.4113 33.4888 17 29.667 17ZM37.667 30.333V34.333C37.667 35.0663 37.405 35.6946 36.8828 36.2168C36.3607 36.7388 35.7332 37 35 37H24.333C23.5999 36.9999 22.9723 36.7388 22.4502 36.2168C21.928 35.6946 21.667 35.0663 21.667 34.333V30.333H37.667ZM25 31.667C24.4444 31.667 23.9719 31.8611 23.583 32.25C23.1942 32.6389 23 33.1115 23 33.667C23.0001 34.2223 23.1944 34.6942 23.583 35.083C23.9719 35.4719 24.4444 35.667 25 35.667C25.5555 35.667 26.0281 35.4719 26.417 35.083C26.8056 34.6943 26.9999 34.2223 27 33.667C27 33.1115 26.8058 32.6389 26.417 32.25C26.0281 31.8611 25.5555 31.667 25 31.667ZM34.333 31.667C33.7777 31.6671 33.3058 31.8613 32.917 32.25C32.5281 32.6389 32.333 33.1114 32.333 33.667C32.3331 34.2224 32.5282 34.6942 32.917 35.083C33.3058 35.4718 33.7776 35.6669 34.333 35.667C34.8886 35.667 35.3611 35.4719 35.75 35.083C36.1387 34.6942 36.3329 34.2223 36.333 33.667C36.333 33.1114 36.1389 32.6389 35.75 32.25C35.3611 31.8611 34.8886 31.667 34.333 31.667ZM37.667 23.667V27.667H21.667V23.667H37.667ZM29.7334 19.667C32.1776 19.667 33.9498 19.7943 35.0498 20.0498C36.1498 20.3054 36.8669 20.6222 37.2002 21H22.2666C22.6666 20.6667 23.4166 20.3608 24.5166 20.083C25.6166 19.8052 27.3557 19.667 29.7334 19.667Z" fill="#E8E8E8"/>
</svg>
