<svg width="20" height="20" viewBox="0 0 20 20" fill="none" xmlns="http://www.w3.org/2000/svg">
<path d="M18.25 9.54167C18.2532 10.7515 17.9705 11.9451 17.425 13.025C16.7782 14.3191 15.7839 15.4076 14.5535 16.1685C13.3231 16.9294 11.9051 17.3328 10.4583 17.3333C9.24845 17.3365 8.05494 17.0538 6.975 16.5083L1.75 18.25L3.49167 13.025C2.94619 11.9451 2.66351 10.7515 2.66667 9.54167C2.66723 8.09494 3.07056 6.67695 3.83149 5.4465C4.59242 4.21606 5.6809 3.22177 6.975 2.575C8.05494 2.02952 9.24845 1.74685 10.4583 1.75H10.9167C12.8273 1.85541 14.632 2.66186 15.985 4.01495C17.3381 5.36804 18.1446 7.17268 18.25 9.08333V9.54167Z" stroke="#767474" stroke-width="2" stroke-linecap="round" stroke-linejoin="round"/>
</svg>
