<svg width="22" height="20" viewBox="0 0 22 20" fill="none" xmlns="http://www.w3.org/2000/svg">
<path d="M19.1033 3.22583C18.6351 2.75742 18.0792 2.38584 17.4674 2.13233C16.8556 1.87881 16.1998 1.74833 15.5375 1.74833C14.8752 1.74833 14.2194 1.87881 13.6076 2.13233C12.9957 2.38584 12.4399 2.75742 11.9717 3.22583L11 4.1975L10.0283 3.22583C9.08261 2.28012 7.79994 1.74882 6.4625 1.74882C5.12505 1.74882 3.84238 2.28012 2.89666 3.22583C1.95095 4.17155 1.41965 5.45422 1.41965 6.79167C1.41965 8.12911 1.95095 9.41178 2.89666 10.3575L11 18.4608L19.1033 10.3575C19.5717 9.88931 19.9433 9.33341 20.1968 8.72157C20.4503 8.10974 20.5808 7.45395 20.5808 6.79167C20.5808 6.12939 20.4503 5.47359 20.1968 4.86176C19.9433 4.24992 19.5717 3.69403 19.1033 3.22583Z" stroke="#767475" stroke-width="2" stroke-linecap="round" stroke-linejoin="round"/>
</svg>
