<svg width="345" height="345" viewBox="0 0 345 345" fill="none" xmlns="http://www.w3.org/2000/svg">
<path d="M184.173 132.097C186.764 124.615 188.876 116.954 191.133 109.368L201.053 76.0307C202.416 71.3928 205.155 59.3414 207.261 55.6912C208.621 53.3362 210.849 52.0549 213.401 51.4104C213.997 51.3545 214.627 51.3218 215.226 51.3528C218.008 51.4977 226.115 54.4581 229.176 55.4278L268.056 68.0476L295.438 76.7851C302.646 79.0087 310.464 81.1646 317.463 83.8414C319.107 84.4704 320.351 85.1203 321.543 86.4572C323.113 88.2176 324.243 90.6943 324.016 93.0961C323.738 96.0276 321.026 103.374 320.052 106.628L308.867 143.983L275.059 258.044L262.955 299.181C261.819 302.932 260.783 306.725 259.564 310.449C258.926 312.397 257.923 314.116 256.328 315.44C254.61 316.867 252.006 317.718 249.768 317.453C245.839 316.985 241.429 315.224 237.616 314.063L214.413 306.993L173.022 294.554L161.77 291.169C159.546 290.503 157.236 289.913 155.08 289.054C153.518 288.432 152.473 287.422 151.452 286.136L111.679 302.453C106.827 304.489 101.96 306.49 97.078 308.455C94.3025 309.592 91.4805 310.946 88.6063 311.8C87.887 310.53 87.3722 309.066 86.8042 307.72L83.4957 299.811L14.2025 131.587C13.3726 129.57 7.09921 114.719 7.18994 114.172C7.20732 114.068 7.26746 113.975 7.30621 113.876C8.37672 113.099 13.4869 111.217 15.1318 110.516C24.974 106.346 34.8476 102.251 44.7526 98.233L119.06 67.4644C130.131 62.9022 141.133 58.1807 152.285 53.8126L184.173 132.097ZM131.619 63.2314C127.619 64.7178 123.803 66.7393 119.778 68.1325L110.196 72.1155C111.195 75.2747 112.686 78.378 113.956 81.4423L119.594 95.2423L136.517 136.274L142.975 152.042C144.518 155.764 146.213 159.44 147.533 163.25C150.754 162.098 153.878 160.698 157.009 159.324C161.062 157.401 165.31 155.884 169.358 153.937L188.578 145.811C185.88 138.414 182.742 131.183 179.803 123.88L165.257 87.7395L157.2 68.1739C155.433 63.857 153.775 59.2841 151.605 55.1616C144.92 57.7958 138.258 60.4858 131.619 63.2314ZM126.661 212.683L119.465 197.001L53.7846 224.889C55.5645 229.667 57.6827 234.352 59.6294 239.066C61.6067 243.854 63.4436 248.732 65.5281 253.472C74.7363 249.265 84.0799 245.394 93.3811 241.401C96.5791 240.028 99.7205 238.535 102.913 237.156C107.93 234.988 114.016 232.924 118.699 230.289C118.913 230.745 119.117 231.068 118.993 231.586C118.76 231.901 118.524 232.125 118.173 232.299C117.407 232.678 116.522 232.824 115.735 233.172C111.394 235.093 107.036 236.951 102.658 238.794C96.384 241.435 90.2006 244.322 83.9465 247.019C77.9868 249.59 71.8907 251.98 66.0395 254.778C66.4306 255.948 66.9667 257.096 67.438 258.238L98.0642 244.908C98.9985 246.573 99.7218 248.391 100.509 250.132L104.236 258.343C110.088 271.296 115.409 284.484 121.436 297.363C122.676 296.91 123.909 296.436 125.133 295.942C124.508 293.972 123.493 292.147 122.639 290.268C121.396 287.481 120.169 284.688 118.958 281.888C117.427 278.352 116.036 274.757 114.484 271.231C110.898 263.232 107.41 255.191 104.021 247.107C103.612 246.136 103.058 245.234 102.657 244.264C102.454 243.772 102.472 243.496 102.67 243.012C102.848 242.911 102.94 242.785 103.151 242.864C103.732 243.08 104.158 243.903 104.417 244.427C105.413 246.434 106.232 248.558 107.123 250.615L111.711 261.192L117.618 274.659C120.608 281.592 123.532 288.485 126.813 295.292C132.885 292.514 139.143 290.192 145.311 287.641L188.747 269.921C186.775 265.467 185.173 260.775 183.413 256.231C180.146 247.774 176.791 239.353 173.346 230.967C166.281 231.762 157.33 230.814 150.545 228.872C150.165 228.764 150.246 228.753 150.071 228.432C150.096 227.964 150.063 227.897 150.358 227.543C152.508 227.677 154.723 228.437 156.879 228.774C162.226 229.612 167.335 229.843 172.739 229.586C171.67 226.603 170.364 223.688 169.19 220.743C167.632 216.834 166.188 212.904 164.397 209.089C160.404 210.986 156.314 212.69 152.274 214.488C150.926 215.088 148.152 216.633 146.798 216.851L146.528 216.637C146.376 216.121 146.334 216.011 146.46 215.496C146.997 214.954 161.741 208.659 163.868 207.627C163.479 206.533 163.084 205.442 162.683 204.353C156.18 207.276 149.378 209.914 143.132 213.35C142.603 213.026 142.076 212.699 141.552 212.367C143.799 210.957 146.495 209.947 148.909 208.848C153.274 206.838 157.662 204.879 162.073 202.97C160.473 198.507 158.58 194.146 156.819 189.745L146.847 165.214C141.159 167.554 135.551 170.11 129.884 172.504L46.8199 208.273C47.2326 209.423 47.7579 210.528 48.2649 211.639C50.5822 210.883 52.8328 209.831 55.0719 208.87L65.2713 204.485L99.2491 189.81L108.488 185.826C110.516 184.938 112.588 183.87 114.709 183.242C115.812 185.011 116.609 187.065 117.454 188.966C118.505 191.321 119.575 193.667 120.662 196.004L125.579 206.687C126.342 208.353 127.345 210.13 127.856 211.886C127.605 212.353 127.122 212.482 126.661 212.683ZM269.559 228.277C256.626 224.594 243.723 220.81 230.849 216.923C225.656 215.406 220.467 213.762 215.222 212.437C216.626 216.493 218.405 220.477 220.041 224.446C226.141 225.951 232.124 228.008 238.172 229.73C243.301 231.191 248.659 232.306 253.675 234.098C254.336 234.334 255.144 234.64 255.562 235.225L255.553 235.568C255.392 235.656 255.245 235.777 255.07 235.832C254.615 235.975 237.937 231.101 236.043 230.547C230.912 229.047 225.722 227.59 220.659 225.876C221.81 228.871 223.003 231.85 224.238 234.812C227.801 235.881 251.569 242.06 252.996 243.343C253.067 243.776 253.104 243.763 252.856 244.118C252.458 244.24 252.176 244.261 251.766 244.171C249 243.561 246.22 242.593 243.494 241.808C237.33 239.978 231.149 238.209 224.95 236.5C226.066 239.341 227.162 242.21 228.409 244.996L244.472 249.615C245.82 250.002 248.973 250.675 250.06 251.262C250.193 251.334 250.271 251.479 250.377 251.588C250.432 252.018 250.438 252.035 250.225 252.41C249.046 252.943 232.057 247.056 229.001 246.649C229.773 248.467 230.594 250.282 231.296 252.128C230.238 252.799 229.173 253.421 228.068 254.013C231.146 254.982 234.244 255.885 237.361 256.721C240.249 257.486 243.281 258.137 246.087 259.152C246.663 259.361 247.393 259.643 247.773 260.145L247.755 260.396C247.207 260.681 246.621 260.616 246.028 260.524C244.122 260.229 242.168 259.557 240.303 259.041C236.654 258.04 233.02 256.988 229.4 255.885C228.463 255.59 227.514 255.307 226.609 254.926C221.863 257.284 217.033 259.291 212.151 261.342L186.4 271.966C183.637 273.133 180.733 274.125 178.027 275.401L175.557 283.335C175.178 284.552 174.875 285.982 174.31 287.11C176.417 288.063 178.858 288.629 181.081 289.3L195.565 293.579L245.819 308.565C247.771 309.205 249.758 309.742 251.731 310.309C252.938 307.327 253.792 304.102 254.728 301.025L260.285 282.298L270.32 248.639C272.126 242.49 274.081 236.395 275.629 230.173C273.6 229.558 271.577 228.926 269.559 228.277ZM221.112 229.46C219.332 226.054 218.4 222.153 216.644 218.692C213.402 219.844 210.272 221.279 207.057 222.498C198.403 225.782 189.334 228.628 180.187 230.112C178.503 230.385 176.708 230.737 175.005 230.789C174.967 230.898 174.884 231.002 174.891 231.117C174.932 231.709 177.652 237.686 178.116 238.842L186.014 259.048C187.344 262.491 188.829 265.911 190.016 269.405C197.566 266.463 205.078 263.424 212.551 260.29C218.665 257.683 224.654 255.096 230.372 251.68C228.158 247.089 226.301 242.33 224.391 237.607C223.295 234.899 222.061 232.221 221.112 229.46ZM213.465 59.906C212.837 61.943 212.182 63.9756 211.585 66.0214C220.962 77.374 218.193 86.3326 218.509 99.5837C224.466 101.363 230.476 102.928 236.464 104.596C240.541 105.733 244.598 106.998 248.684 108.088L250.001 104.371C252.096 97.8342 254.11 91.2727 256.041 84.6861C249.407 80.5043 245.936 76.1958 242.87 69.0017C238.605 67.2679 233.763 66.0796 229.353 64.7094C224.111 63.0804 218.809 61.1263 213.465 59.906ZM211.06 67.7915C208.285 76.8624 205.576 85.9531 202.934 95.0637C205.528 96.0717 208.42 96.8291 211.126 97.4942C213.121 98.0713 215.144 98.6016 217.122 99.2327C216.615 89.9342 218.571 81.2425 214.283 72.4729C213.539 70.9518 212.541 69.1567 211.292 67.9879C211.217 67.9185 211.137 67.8569 211.06 67.7915ZM108.473 72.9426C101.837 75.4132 95.2806 78.373 88.7414 81.1037C84.7332 82.7775 80.3823 84.2333 76.5374 86.2328C77.6954 89.2806 90.3822 119.711 90.8576 120.075C90.8859 120.096 90.9226 120.103 90.9553 120.118C101.601 115.781 112.22 111.378 122.81 106.908C121.436 103.37 109.316 73.4911 108.576 72.9844C108.546 72.9631 108.508 72.9564 108.473 72.9426ZM286.943 83.5628C281.29 87.2308 276.157 88.9127 269.384 88.7354C267.15 96.4646 264.954 104.278 262.259 111.859L295.223 121.118C299.194 122.208 303.266 123.189 307.147 124.567C309.202 118.15 311.007 111.664 312.924 105.206C314.145 101.094 315.678 96.8861 316.496 92.6783C310.62 90.5386 304.497 88.7883 298.519 86.9404C294.757 85.7777 290.809 84.2555 286.943 83.5628ZM257.347 85.3292C255.707 90.9271 253.947 96.4747 252.192 102.036C251.374 104.627 250.714 107.337 249.741 109.869C244.243 108.613 238.841 106.718 233.387 105.243C227.469 103.684 221.57 102.052 215.693 100.347C211.313 99.1222 206.862 97.9598 202.565 96.4666L199.197 106.988C208.092 109.333 216.882 112.068 225.733 114.57C232.686 116.534 239.814 118.247 246.658 120.557C244.798 127.431 242.576 134.197 240.482 141C239.047 145.662 237.842 150.42 236.103 154.98C231.4 154.073 226.7 152.474 222.07 151.21C210.771 148.128 199.516 144.815 188.204 141.799C188.813 143.93 189.683 145.958 190.456 148.031C191.301 150.298 192.045 152.657 193.097 154.838C202.833 157.755 212.711 160.258 222.479 163.078C225.938 164.076 229.62 164.875 232.975 166.145C230.151 175.357 227.456 184.607 224.891 193.894C223.861 197.537 222.678 201.121 221.757 204.796C224.866 205.685 227.942 206.702 231.059 207.556L232.957 208.105C234.766 201.04 237.006 194.053 239.01 187.04C240.149 183.047 241.312 179.062 242.499 175.084C243.102 173.027 243.616 170.889 244.344 168.876C253.805 171.542 263.34 174.015 272.833 176.573C278.663 178.144 284.542 180.017 290.456 181.217C291.366 177.743 292.197 174.199 293.353 170.798C281.678 167.318 269.803 164.448 258.084 161.104C254.511 160.084 250.814 159.204 247.304 158.005C251.054 146.665 253.811 134.979 257.657 123.667C262.663 124.754 267.629 126.364 272.564 127.744C282.93 130.717 293.323 133.592 303.743 136.368C304.878 132.882 305.827 129.344 306.823 125.817L277.269 117.578C271.715 115.999 266.164 114.299 260.567 112.881C263.145 104.864 265.155 96.5599 268.092 88.6755C264.154 87.9915 260.927 87.1728 257.347 85.3292ZM75.1476 86.7682C63.7657 91.2768 52.5946 96.3601 41.1685 100.75L52.3557 128.261C52.8675 129.509 54.4251 134.205 54.9954 135.046C55.0019 135.056 55.2707 135.255 55.2768 135.258C55.295 135.268 55.3182 135.265 55.3388 135.269L78.7385 125.373C82.2235 123.881 86.0229 122.547 89.3283 120.709L77.8342 93.2039C77.315 91.9624 75.778 87.4616 75.1476 86.7682ZM39.4644 101.561C32.9682 104.146 26.4989 106.796 20.0563 109.513C16.1367 111.141 12.0871 112.654 8.26894 114.503C11.6329 122.962 15.0806 131.387 18.6122 139.777C19.7536 142.493 20.6826 145.347 21.918 148.015C22.1207 148.453 22.1989 148.796 22.6328 149.041L22.7834 148.988C33.2084 144.752 43.5974 140.43 53.9503 136.021C52.3911 132.291 40.5509 102.423 39.7942 101.713C39.706 101.63 39.5746 101.612 39.4644 101.561ZM123.269 108.351C117.498 110.528 111.843 113.115 106.124 115.444C102.97 116.726 99.8229 118.026 96.6835 119.344C95.004 120.048 93.1779 120.695 91.588 121.575C96.9944 133.858 102.22 146.217 107.266 158.652C110.906 157.261 114.428 155.476 118.011 153.936C124.825 151.021 131.665 148.165 138.529 145.369C137.191 141.604 124.111 109.336 123.269 108.351ZM198.937 108.28L189.454 140.542C196.825 142.969 204.403 144.894 211.895 146.905C217.585 148.432 223.241 150.093 228.937 151.59C231.033 152.178 233.136 152.834 235.268 153.273C235.696 151.977 236.15 150.683 236.541 149.375C235.307 148.16 234.298 146.671 233.258 145.286C227.604 137.758 219.046 123.397 218.278 113.895C214.437 112.726 210.579 111.616 206.704 110.566C204.152 109.864 201.387 109.287 198.937 108.28ZM219.657 114.313C222.253 127.053 229.615 137.71 237.003 148.105C237.597 146.057 238.287 143.996 238.791 141.926C240.315 137.165 241.76 132.38 243.127 127.571C243.715 125.543 244.448 123.5 244.916 121.445C240.26 120.194 235.62 118.884 230.996 117.517C227.249 116.417 223.46 115.197 219.657 114.313ZM258.738 125.402C256.474 132.511 254.291 139.645 252.192 146.804C251.192 150.201 250.089 153.615 249.251 157.054C259.621 160.314 270.185 162.945 280.668 165.809C284.893 166.964 289.754 167.985 293.821 169.511C294.952 165.417 296.297 161.396 297.552 157.34C299.539 150.838 301.442 144.311 303.259 137.76C291.993 135.021 280.893 131.464 269.708 128.403C266.437 127.508 261.953 125.928 258.738 125.402ZM54.3927 137.452C43.9369 141.743 33.5815 146.443 23.021 150.453C23.7284 152.736 24.793 154.924 25.7215 157.125C26.8807 159.919 28.0246 162.72 29.1531 165.527C31.2394 170.616 33.3596 175.691 35.5137 180.752C36.4942 183.055 37.3644 185.431 38.4772 187.672C44.4999 185.296 50.4427 182.676 56.4135 180.172C60.8884 178.296 65.4937 176.557 69.8756 174.482C67.9464 169.123 65.4944 163.925 63.3307 158.655C60.5633 151.913 57.9987 145.029 54.9931 138.39C54.8297 138.029 54.7225 137.682 54.3927 137.452ZM139.088 146.748C136.84 147.546 134.665 148.548 132.462 149.465C127.35 151.609 122.254 153.794 117.177 156.02L69.8079 176.182C63.2246 179.037 56.6097 181.817 49.9633 184.522C46.3273 186.038 42.753 187.7 39.0304 189.001C41.3066 195.007 44.0737 200.831 46.3512 206.834C48.8077 205.936 51.1785 204.787 53.5713 203.732L62.735 199.767L92.1291 187.141L127 172.193L140.308 166.491C142.318 165.622 144.398 164.841 146.36 163.872C145.192 161.227 140.051 147.865 139.088 146.748ZM188.846 147.232C184.466 149.092 180.042 150.851 175.674 152.74C166.478 156.717 157.348 160.824 148.053 164.571C153.477 177.031 158.231 189.711 163.368 202.284L171.279 198.685L190.252 189.998C194.513 188.086 198.994 186.369 203.074 184.092C200.777 177.449 198.139 170.855 195.574 164.31C194.402 161.32 193.141 158.359 192.091 155.324C190.795 155.864 184.146 158.913 183.138 158.565L182.965 158.227C183.112 157.785 183.186 157.55 183.601 157.301C185.372 156.242 189.54 154.715 191.617 153.868C191.119 152.533 189.728 148.081 188.846 147.232ZM193.379 156.368L196.862 165.217C197.866 165.492 199.245 165.74 199.862 166.687C199.971 166.854 199.968 166.889 200.01 167.056C199.679 167.291 199.425 167.33 199.025 167.257C198.475 167.156 197.869 166.932 197.349 166.73C200.88 175.781 204.241 184.891 207.878 193.901C208.917 196.475 209.821 199.143 210.955 201.672C214.005 202.784 217.202 203.596 220.329 204.47C220.825 202.442 221.355 200.419 222.066 198.453C225.156 188.023 228.253 177.56 231.156 167.077C226.077 165.394 220.873 164.055 215.713 162.645C208.258 160.59 200.813 158.498 193.379 156.368ZM245.407 170.644C244.497 173.176 243.793 175.79 243.022 178.367C242.328 180.692 241.532 183.002 241.07 185.388C242.528 185.631 244.571 186.058 245.656 187.115L245.609 187.377C244.242 187.831 242 186.814 240.686 186.369L234.33 208.494C245.785 211.953 257.398 214.963 268.819 218.523C272.072 219.426 275.311 220.379 278.535 221.38C279.853 216.548 281.256 211.74 282.742 206.957C279.466 200.646 267.207 176.756 261.065 174.851C255.929 173.258 250.592 172.112 245.407 170.644ZM265.201 176.046C267.353 178.747 269.497 181.435 271.437 184.295C275.925 190.914 279.67 198.039 283.39 205.108L285.018 199.565C286.779 193.929 288.454 188.268 290.045 182.581C287.094 181.936 284.181 181.073 281.264 180.289C275.923 178.826 270.568 177.411 265.201 176.046ZM113.918 185.127C92.1497 194.272 70.6808 204.176 48.8063 213.062C49.3393 214.4 52.7738 223.038 53.324 223.503L53.6239 223.42C58.3023 221.245 63.1464 219.43 67.8881 217.402L99.0534 204.097C105.448 201.409 112.828 198.687 118.937 195.483C118.357 194.267 114.312 185.274 113.918 185.127ZM203.484 185.558L175.134 198.567C171.469 200.259 167.415 201.657 163.932 203.675C164.305 204.73 164.641 205.833 165.15 206.83L165.381 206.926C171.39 204.357 177.252 201.481 183.22 198.824C188.002 196.712 192.764 194.553 197.504 192.349C199.962 191.218 202.496 190.148 204.9 188.908C204.586 188.035 204.153 186.197 203.484 185.558ZM205.244 190.342C196.406 194.486 187.542 198.573 178.651 202.603C174.402 204.528 170.093 206.373 165.885 208.386C168.831 215.372 171.473 222.485 174.304 229.518L176.665 229.183C179.513 228.744 182.346 228.22 185.162 227.611C187.979 227.001 190.775 226.307 193.55 225.53C196.325 224.752 199.074 223.891 201.797 222.947C204.52 222.004 207.212 220.979 209.873 219.873C211.973 219.019 214.241 218.237 216.245 217.185C212.607 208.361 209.355 199.345 205.568 190.589L205.395 190.609L205.445 190.42L205.244 190.342ZM211.848 203.542C212.333 205.968 213.643 208.553 214.579 210.843C216.959 211.225 219.356 212.07 221.676 212.735L235.774 216.879L258.391 223.522C262.582 224.732 266.734 226.025 270.904 227.3C272.571 227.81 274.275 228.156 275.925 228.724C276.248 228.461 276.314 228.154 276.45 227.774C276.992 226.102 277.481 224.414 277.919 222.712C272.036 220.814 266.04 219.222 260.099 217.512L239.709 211.528C230.43 208.902 221.053 206.411 211.848 203.542ZM97.1239 246.93C87.4777 251.267 77.6374 255.168 68.0114 259.551C71.8819 269.861 76.3006 280.026 80.5844 290.173C83.4536 296.969 86.1152 303.847 89.1417 310.578L90.3357 310.066L109.776 302.197C113.165 300.802 116.524 299.297 119.937 297.965C117.508 292.579 98.0844 247.412 97.2991 246.939L97.1239 246.93ZM175.881 276.101C172.45 277.396 169.037 278.737 165.642 280.122C164.936 281.414 164.453 282.705 164.087 284.13L166.641 284.816L173.025 286.894C173.566 285.193 176.454 277.074 176.219 276.085L175.881 276.101Z" fill="black"/>
<path d="M131.619 63.2314C138.258 60.4858 144.92 57.7958 151.605 55.1616C153.775 59.2841 155.433 63.857 157.2 68.1739L165.257 87.7395L179.803 123.88C182.742 131.183 185.88 138.414 188.578 145.811L169.358 153.937L145.918 97.3672L136.054 74.2401C134.544 70.6088 132.877 66.9553 131.619 63.2314Z" fill="#FEFEFE"/>
<path d="M211.585 66.0213C212.182 63.9756 212.837 61.943 213.465 59.906C218.809 61.1263 224.111 63.0804 229.353 64.7094C233.763 66.0796 238.605 67.2679 242.869 69.0017C245.936 76.1958 249.407 80.5043 256.041 84.686C254.11 91.2727 252.096 97.8342 250.001 104.371L248.684 108.088C244.598 106.997 240.541 105.733 236.464 104.596C230.476 102.928 224.466 101.363 218.509 99.5837C218.193 86.3325 220.962 77.374 211.585 66.0213Z" fill="#FEFEFE"/>
<path d="M119.778 68.1324C123.803 66.7393 127.619 64.7178 131.619 63.2313C132.877 66.9552 134.544 70.6087 136.054 74.24L145.918 97.3671L169.358 153.937C165.31 155.884 161.062 157.4 157.009 159.324C155.231 153.827 152.805 148.508 150.626 143.162C146.614 133.092 142.505 123.062 138.299 113.072L126.299 83.6032C124.174 78.4319 122.241 73.1545 119.778 68.1324Z" fill="#DFA85E"/>
<path d="M202.934 95.0637C205.576 85.9531 208.285 76.8624 211.06 67.7915C211.137 67.8569 211.218 67.9185 211.292 67.9879C212.541 69.1567 213.54 70.9518 214.283 72.4729C218.571 81.2425 216.616 89.9342 217.122 99.2327C215.144 98.6016 213.121 98.0713 211.126 97.4942C208.42 96.8291 205.528 96.0717 202.934 95.0637Z" fill="#FEFEFE"/>
<path d="M110.196 72.1154L119.778 68.1324C122.241 73.1545 124.174 78.4319 126.299 83.6032L138.299 113.072C142.505 123.062 146.614 133.092 150.626 143.162C152.805 148.508 155.231 153.827 157.009 159.324C153.878 160.698 150.754 162.098 147.533 163.25C146.213 159.44 144.518 155.764 142.975 152.042L136.517 136.274L119.595 95.2422L113.956 81.4422C112.686 78.378 111.195 75.2747 110.196 72.1154Z" fill="#FEFEFE"/>
<path d="M76.5374 86.2329C80.3822 84.2333 84.7331 82.7775 88.7414 81.1037C95.2806 78.373 101.837 75.4132 108.473 72.9426C108.507 72.9564 108.546 72.9632 108.576 72.9844C109.316 73.4911 121.436 103.37 122.81 106.908C112.22 111.378 101.601 115.781 90.9553 120.118C90.9226 120.103 90.8858 120.096 90.8575 120.075C90.3822 119.711 77.6953 89.2806 76.5374 86.2329Z" fill="#FEFEFE"/>
<path d="M269.384 88.7354C276.157 88.9126 281.29 87.2307 286.943 83.5627C290.809 84.2554 294.757 85.7776 298.519 86.9403C304.498 88.7883 310.62 90.5385 316.496 92.6783C315.678 96.886 314.145 101.094 312.924 105.206C311.007 111.664 309.202 118.15 307.147 124.567C303.266 123.189 299.194 122.208 295.223 121.118L262.259 111.858C264.954 104.278 267.15 96.4645 269.384 88.7354Z" fill="#FEFEFE"/>
<path d="M249.741 109.869C250.714 107.337 251.374 104.627 252.192 102.036C253.947 96.4747 255.707 90.9271 257.348 85.3292C260.927 87.1728 264.154 87.9915 268.092 88.6755C265.155 96.5599 263.145 104.864 260.567 112.881C266.165 114.299 271.715 115.999 277.27 117.578L306.823 125.817C305.827 129.344 304.878 132.882 303.743 136.368C293.323 133.592 282.93 130.717 272.565 127.744C267.629 126.364 262.663 124.754 257.657 123.667C253.811 134.979 251.054 146.665 247.304 158.005C250.814 159.204 254.511 160.084 258.084 161.104C269.803 164.448 281.678 167.318 293.353 170.798C292.198 174.199 291.366 177.743 290.456 181.217C284.543 180.017 278.663 178.144 272.833 176.573C263.341 174.015 253.805 171.542 244.344 168.876C243.616 170.889 243.102 173.027 242.499 175.084C241.312 179.062 240.149 183.047 239.01 187.04C237.006 194.053 234.766 201.04 232.958 208.105L231.059 207.556C227.942 206.702 224.866 205.685 221.757 204.796C222.678 201.121 223.861 197.537 224.892 193.894C227.456 184.607 230.151 175.357 232.976 166.145C229.62 164.875 225.938 164.076 222.479 163.078C212.711 160.258 202.833 157.755 193.097 154.838C192.046 152.657 191.302 150.298 190.456 148.031C189.683 145.958 188.813 143.93 188.204 141.799C199.516 144.815 210.771 148.128 222.07 151.21C226.7 152.474 231.4 154.073 236.103 154.98C237.842 150.42 239.047 145.662 240.482 141C242.577 134.197 244.799 127.431 246.659 120.557C239.815 118.247 232.686 116.534 225.733 114.57C216.882 112.068 208.092 109.333 199.197 106.988L202.565 96.4666C206.862 97.9598 211.313 99.1222 215.693 100.347C221.571 102.052 227.469 103.684 233.387 105.243C238.841 106.718 244.243 108.613 249.741 109.869Z" fill="#FEFEFE"/>
<path d="M41.1685 100.75C52.5946 96.3601 63.7656 91.2768 75.1476 86.7682C75.778 87.4616 77.315 91.9624 77.8341 93.2039L89.3283 120.709C86.0228 122.547 82.2235 123.881 78.7384 125.373L55.3387 135.269C55.3182 135.265 55.2949 135.268 55.2767 135.258C55.2707 135.255 55.0018 135.056 54.9954 135.046C54.425 134.205 52.8675 129.509 52.3557 128.261L41.1685 100.75Z" fill="#FEFEFE"/>
<path d="M8.26904 114.503C12.0872 112.654 16.1368 111.14 20.0564 109.513C26.499 106.796 32.9683 104.146 39.4645 101.561C39.5747 101.612 39.7061 101.63 39.7943 101.713C40.551 102.422 52.3912 132.291 53.9504 136.021C43.5975 140.43 33.2085 144.752 22.7835 148.988L22.6329 149.041C22.199 148.796 22.1208 148.453 21.9181 148.015C20.6827 145.347 19.7537 142.493 18.6123 139.776C15.0807 131.386 11.6329 122.962 8.26904 114.503Z" fill="#FEFEFE"/>
<path d="M91.5881 121.575C93.178 120.695 95.0041 120.048 96.6836 119.344C99.823 118.026 102.97 116.726 106.124 115.444C111.843 113.115 117.498 110.528 123.269 108.351C124.111 109.336 137.191 141.604 138.529 145.369C131.665 148.165 124.825 151.021 118.011 153.936C114.428 155.476 110.906 157.261 107.266 158.652C102.221 146.217 96.9947 133.858 91.5881 121.575Z" fill="#FEFEFE"/>
<path d="M189.454 140.542L198.937 108.281C201.387 109.287 204.152 109.864 206.704 110.566C210.579 111.616 214.437 112.726 218.278 113.895C219.046 123.397 227.604 137.758 233.258 145.286C234.298 146.671 235.307 148.16 236.541 149.375C236.15 150.683 235.696 151.977 235.268 153.273C233.136 152.834 231.033 152.178 228.937 151.59C223.241 150.093 217.585 148.432 211.895 146.905C204.403 144.894 196.825 142.969 189.454 140.542Z" fill="#FEFEFE"/>
<path d="M237.003 148.105C229.615 137.71 222.253 127.053 219.657 114.313C223.46 115.197 227.249 116.417 230.996 117.517C235.62 118.884 240.26 120.194 244.916 121.445C244.448 123.5 243.715 125.543 243.127 127.571C241.76 132.38 240.315 137.165 238.791 141.926C238.287 143.996 237.597 146.057 237.003 148.105Z" fill="#FEFEFE"/>
<path d="M249.251 157.054C250.089 153.615 251.192 150.201 252.192 146.804C254.291 139.645 256.474 132.511 258.738 125.402C261.953 125.928 266.437 127.508 269.708 128.403C280.893 131.464 291.993 135.021 303.259 137.76C301.442 144.311 299.539 150.838 297.552 157.34C296.297 161.396 294.952 165.417 293.821 169.511C289.754 167.985 284.893 166.963 280.668 165.809C270.185 162.945 259.621 160.314 249.251 157.054Z" fill="#FEFEFE"/>
<path d="M23.021 150.453C33.5815 146.443 43.9369 141.743 54.3927 137.452C54.7226 137.682 54.8297 138.029 54.9931 138.39C57.9987 145.029 60.5633 151.913 63.3307 158.655C65.4944 163.925 67.9464 169.123 69.8756 174.482C65.4937 176.557 60.8884 178.296 56.4135 180.172C50.4427 182.676 44.4999 185.296 38.4772 187.672C37.3644 185.431 36.4942 183.055 35.5137 180.752C33.3596 175.691 31.2394 170.616 29.1531 165.527C28.0245 162.72 26.8807 159.919 25.7215 157.125C24.793 154.924 23.7284 152.736 23.021 150.453Z" fill="#FEFEFE"/>
<path d="M39.0305 189.001C42.7531 187.7 46.3274 186.038 49.9634 184.522C56.6098 181.817 63.2247 179.037 69.808 176.182L117.177 156.02C122.254 153.794 127.35 151.609 132.463 149.465C134.665 148.548 136.84 147.547 139.088 146.748C140.051 147.865 145.192 161.227 146.361 163.872C144.398 164.841 142.318 165.622 140.309 166.491L127 172.193L92.1292 187.141L62.7351 199.767L53.5714 203.732C51.1786 204.787 48.8078 205.936 46.3513 206.834C44.0738 200.831 41.3067 195.007 39.0305 189.001Z" fill="#FEFEFE"/>
<path d="M148.053 164.571C157.348 160.824 166.478 156.717 175.674 152.74C180.042 150.851 184.466 149.092 188.846 147.232C189.728 148.081 191.118 152.533 191.617 153.868C189.54 154.715 185.372 156.242 183.601 157.301C183.186 157.55 183.112 157.785 182.965 158.227L183.138 158.565C184.146 158.913 190.795 155.864 192.091 155.324C193.141 158.359 194.402 161.32 195.574 164.31C198.139 170.855 200.777 177.449 203.074 184.092C198.994 186.369 194.513 188.086 190.252 189.998L171.279 198.685L163.368 202.284C158.231 189.711 153.477 177.031 148.053 164.571Z" fill="#FEFEFE"/>
<path d="M196.862 165.217L193.379 156.368C200.813 158.498 208.258 160.59 215.713 162.645C220.873 164.055 226.077 165.394 231.156 167.077C228.252 177.56 225.156 188.023 222.066 198.453C221.355 200.419 220.825 202.442 220.329 204.47C217.202 203.596 214.005 202.784 210.955 201.672C209.821 199.143 208.917 196.475 207.878 193.901C204.241 184.891 200.88 175.781 197.349 166.73C197.869 166.932 198.475 167.156 199.024 167.257C199.425 167.33 199.679 167.291 200.01 167.057C199.968 166.889 199.971 166.854 199.862 166.687C199.244 165.74 197.866 165.492 196.862 165.217ZM203.797 168.238C203.804 168.647 203.729 168.851 204.032 169.158C204.964 170.1 207.338 171.262 208.619 171.727C208.669 171.453 208.826 171.054 208.674 170.809C208.075 169.839 205.579 168.539 204.484 168.298C204.262 168.249 204.023 168.254 203.797 168.238ZM211.704 173.279C211.959 174.414 212.596 174.796 213.546 175.406C214.38 175.941 215.391 176.558 216.401 176.506C216.053 175.234 214.323 174.329 213.206 173.699C212.675 173.4 212.322 173.295 211.704 173.279ZM219.784 177.982C220.072 179.091 220.927 179.669 221.877 180.237C222.531 180.628 223.544 181.184 224.306 181.04C224.39 181.024 224.471 180.995 224.554 180.972C224.439 180.324 224.358 180.135 223.815 179.758C222.74 179.011 221.109 177.998 219.784 177.982Z" fill="#FEFEFE"/>
<path d="M118.699 230.289C118.521 230.135 118.407 229.916 118.334 229.695C117.385 226.805 118.258 222.31 119.588 219.635C120.979 216.838 123.617 213.714 126.661 212.683C127.122 212.482 127.605 212.353 127.856 211.886C127.345 210.13 126.342 208.353 125.579 206.687L120.662 196.004C119.575 193.667 118.505 191.321 117.454 188.966C116.609 187.065 115.812 185.011 114.709 183.242C112.587 183.87 110.516 184.938 108.488 185.826L99.249 189.81L65.2713 204.485L55.0719 208.87C52.8327 209.831 50.5821 210.883 48.2648 211.639C47.7578 210.527 47.2325 209.423 46.8198 208.273L129.884 172.504C135.551 170.11 141.159 167.554 146.847 165.214L156.819 189.745C158.58 194.146 160.473 198.507 162.073 202.97C157.662 204.879 153.274 206.838 148.908 208.848C146.495 209.947 143.799 210.957 141.552 212.367C142.076 212.699 142.603 213.026 143.132 213.349C149.378 209.914 156.18 207.276 162.683 204.353C163.084 205.442 163.479 206.533 163.867 207.627C161.741 208.659 146.997 214.954 146.46 215.496C146.333 216.011 146.376 216.121 146.528 216.637L146.798 216.851C148.152 216.633 150.926 215.088 152.274 214.488C156.314 212.69 160.404 210.986 164.397 209.089C166.188 212.904 167.632 216.834 169.19 220.743C170.364 223.688 171.67 226.603 172.739 229.586C167.335 229.843 162.226 229.612 156.879 228.774C154.723 228.437 152.508 227.677 150.358 227.543C150.063 227.897 150.095 227.964 150.071 228.432C150.246 228.753 150.165 228.764 150.545 228.872C157.33 230.814 166.28 231.762 173.346 230.967C176.791 239.353 180.146 247.774 183.413 256.231C185.173 260.775 186.775 265.467 188.747 269.921L145.311 287.641C139.143 290.191 132.885 292.514 126.813 295.292C123.531 288.485 120.608 281.592 117.618 274.659L111.711 261.192L107.123 250.615C106.232 248.558 105.413 246.434 104.417 244.427C104.158 243.903 103.732 243.08 103.151 242.864C102.94 242.785 102.848 242.911 102.67 243.012C102.472 243.496 102.454 243.772 102.657 244.264C103.058 245.234 103.612 246.136 104.021 247.107C107.41 255.191 110.898 263.232 114.484 271.231C116.036 274.757 117.427 278.352 118.957 281.888C120.169 284.688 121.396 287.481 122.639 290.268C123.493 292.147 124.508 293.972 125.133 295.942C123.909 296.436 122.676 296.91 121.436 297.363C115.409 284.484 110.088 271.296 104.236 258.343L100.509 250.132C99.7217 248.391 98.9984 246.573 98.0641 244.908L67.438 258.238C66.9666 257.096 66.4306 255.948 66.0394 254.778C71.8906 251.98 77.9867 249.59 83.9464 247.019C90.2005 244.322 96.3839 241.435 102.658 238.794C107.035 236.951 111.393 235.093 115.735 233.172C116.522 232.824 117.407 232.678 118.173 232.299C118.524 232.125 118.76 231.901 118.993 231.586C119.117 231.068 118.913 230.745 118.699 230.289ZM137.507 242.547C137.762 243.58 137.929 245.204 138.885 245.826L139.582 245.87C139.416 244.781 139.417 243.347 138.472 242.63C138.149 242.597 137.831 242.563 137.507 242.547ZM139.963 249.888C139.479 250.766 139.906 252.333 140.176 253.274C140.352 253.887 140.534 254.532 140.951 255.024C141.171 255.067 141.376 255.112 141.6 255.123C142.016 254.279 141.363 252.209 141.051 251.299C140.887 250.821 140.756 250.397 140.39 250.026L139.963 249.888ZM141.901 259.364C141.956 260.844 142.439 263.414 143.419 264.557C143.729 264.68 143.954 264.735 144.287 264.749C144.416 263.448 143.623 260.649 142.802 259.602C142.615 259.363 142.192 259.4 141.901 259.364ZM145.304 268.579C144.997 269.098 144.871 269.387 145.037 269.986C145.354 271.133 146.479 273.055 147.595 273.589C147.643 273.612 147.694 273.629 147.743 273.65C147.96 273.268 148.124 273.118 147.992 272.664C147.763 271.873 146.052 268.955 145.304 268.579ZM151.185 275.98C151.092 276.489 150.977 276.79 151.284 277.261C151.969 278.314 153.969 279.727 155.242 279.953C155.345 279.972 155.449 279.981 155.552 279.995C155.593 279.727 155.701 279.543 155.53 279.309C155.143 278.781 151.768 276.125 151.185 275.98Z" fill="#FEFEFE"/>
<path d="M208.619 171.727C207.338 171.262 204.964 170.1 204.033 169.158C203.729 168.851 203.804 168.647 203.797 168.238C204.023 168.254 204.263 168.249 204.484 168.298C205.58 168.539 208.075 169.839 208.675 170.809C208.826 171.054 208.669 171.453 208.619 171.727Z" fill="black"/>
<path d="M241.07 185.388C241.532 183.002 242.328 180.692 243.023 178.367C243.793 175.79 244.497 173.175 245.407 170.644C250.592 172.112 255.929 173.258 261.065 174.851C267.207 176.756 279.467 200.646 282.742 206.957C281.256 211.74 279.853 216.548 278.535 221.38C275.311 220.378 272.072 219.426 268.819 218.523C257.398 214.963 245.786 211.953 234.33 208.494L240.686 186.369C242 186.814 244.242 187.831 245.609 187.377L245.656 187.115C244.571 186.058 242.528 185.631 241.07 185.388ZM249.367 188.122C249.337 188.392 249.222 188.686 249.386 188.922C250.277 190.207 253.372 190.853 254.854 191.056C254.823 190.607 254.876 190.461 254.528 190.142C253.502 189.198 250.716 188.43 249.367 188.122ZM258.775 191.636C258.73 191.902 258.593 192.162 258.775 192.39C259.527 193.337 262.863 194.452 264.033 194.713C264.081 194.469 264.233 194.13 264.1 193.904C263.549 192.96 260.279 191.872 259.243 191.683C259.103 191.657 258.908 191.647 258.775 191.636ZM268.641 195.554C268.423 196.044 268.33 196.079 268.494 196.579C269.613 197.612 272.276 198.517 273.797 198.723C273.91 198.21 273.96 198.155 273.747 197.685C272.275 196.642 270.309 196.221 268.641 195.554Z" fill="#FEFEFE"/>
<path d="M216.401 176.506C215.391 176.558 214.38 175.941 213.546 175.406C212.596 174.796 211.959 174.414 211.704 173.279C212.323 173.295 212.675 173.4 213.206 173.699C214.323 174.329 216.053 175.234 216.401 176.506Z" fill="black"/>
<path d="M283.39 205.108C279.67 198.039 275.925 190.914 271.437 184.295C269.497 181.435 267.353 178.747 265.201 176.046C270.568 177.411 275.923 178.826 281.264 180.289C284.181 181.073 287.094 181.936 290.045 182.581C288.454 188.268 286.779 193.929 285.018 199.565L283.39 205.108Z" fill="#FEFEFE"/>
<path d="M224.554 180.972C224.471 180.995 224.39 181.024 224.306 181.04C223.544 181.184 222.531 180.628 221.877 180.237C220.927 179.669 220.072 179.091 219.784 177.982C221.109 177.998 222.74 179.011 223.815 179.758C224.358 180.135 224.439 180.323 224.554 180.972Z" fill="black"/>
<path d="M48.8064 213.062C70.6809 204.176 92.1497 194.272 113.918 185.127C114.312 185.274 118.357 194.267 118.937 195.483C112.828 198.687 105.448 201.409 99.0534 204.097L67.8882 217.402C63.1465 219.43 58.3023 221.245 53.6239 223.42L53.3241 223.503C52.7739 223.038 49.3394 214.4 48.8064 213.062Z" fill="#DFA85E"/>
<path d="M163.932 203.675C167.415 201.657 171.469 200.259 175.134 198.567L203.484 185.558C204.153 186.197 204.586 188.035 204.9 188.908C202.496 190.148 199.962 191.218 197.504 192.349C192.764 194.553 188.002 196.712 183.22 198.824C177.252 201.481 171.39 204.357 165.381 206.926L165.15 206.83C164.641 205.833 164.305 204.73 163.932 203.675Z" fill="#FEFEFE"/>
<path d="M254.854 191.056C253.372 190.853 250.277 190.207 249.386 188.922C249.222 188.686 249.337 188.392 249.367 188.122C250.716 188.43 253.502 189.198 254.528 190.142C254.875 190.461 254.823 190.607 254.854 191.056Z" fill="black"/>
<path d="M165.885 208.386C170.093 206.373 174.402 204.528 178.651 202.603C187.542 198.573 196.406 194.486 205.244 190.342L205.445 190.42L205.395 190.609L205.568 190.589C209.355 199.345 212.607 208.361 216.245 217.185C214.241 218.237 211.973 219.019 209.873 219.873C207.212 220.979 204.52 222.004 201.797 222.947C199.074 223.891 196.325 224.752 193.55 225.53C190.775 226.307 187.979 227.001 185.162 227.611C182.346 228.22 179.513 228.744 176.665 229.183L174.304 229.518C171.473 222.485 168.831 215.372 165.885 208.386Z" fill="#FEFEFE"/>
<path d="M264.032 194.713C262.863 194.452 259.526 193.337 258.774 192.39C258.593 192.162 258.73 191.902 258.774 191.636C258.908 191.647 259.103 191.657 259.242 191.682C260.279 191.872 263.549 192.96 264.1 193.904C264.232 194.13 264.081 194.469 264.032 194.713Z" fill="black"/>
<path d="M273.797 198.723C272.276 198.517 269.613 197.612 268.494 196.579C268.329 196.079 268.423 196.044 268.641 195.554C270.308 196.221 272.275 196.642 273.747 197.685C273.96 198.155 273.91 198.21 273.797 198.723Z" fill="black"/>
<path d="M126.661 212.683C123.617 213.714 120.979 216.838 119.588 219.635C118.258 222.31 117.385 226.805 118.334 229.695C118.407 229.916 118.521 230.135 118.699 230.289C114.016 232.924 107.93 234.988 102.913 237.156C99.7205 238.535 96.5791 240.028 93.3812 241.401C84.08 245.394 74.7363 249.265 65.5281 253.472C63.4437 248.732 61.6068 243.854 59.6294 239.066C57.6828 234.352 55.5646 229.667 53.7847 224.889L119.465 197.001L126.661 212.683Z" fill="#DFA85E"/>
<path d="M214.58 210.843C213.643 208.553 212.333 205.968 211.849 203.542C221.053 206.411 230.43 208.902 239.709 211.528L260.099 217.512C266.04 219.222 272.036 220.814 277.919 222.712C277.482 224.414 276.992 226.102 276.45 227.774C276.314 228.153 276.248 228.461 275.925 228.724C274.275 228.156 272.571 227.81 270.904 227.3C266.735 226.025 262.582 224.732 258.392 223.522L235.774 216.879L221.676 212.735C219.356 212.07 216.959 211.225 214.58 210.843Z" fill="#FEFEFE"/>
<path d="M269.559 228.277C268.255 231.309 267.563 234.747 266.578 237.903C263.224 249.004 260.004 260.143 256.919 271.321C254.78 279.037 252.54 286.724 250.2 294.382C248.8 298.946 246.919 303.978 245.819 308.565L195.565 293.579L181.081 289.3C178.858 288.629 176.417 288.063 174.31 287.11C174.875 285.982 175.178 284.552 175.557 283.335L178.027 275.401C180.733 274.125 183.637 273.133 186.4 271.966L212.151 261.342C217.033 259.291 221.863 257.284 226.609 254.926C227.514 255.307 228.463 255.59 229.4 255.885C233.02 256.988 236.654 258.04 240.303 259.041C242.168 259.557 244.122 260.229 246.028 260.524C246.621 260.616 247.207 260.681 247.755 260.395L247.773 260.145C247.393 259.643 246.663 259.361 246.087 259.152C243.281 258.137 240.249 257.486 237.361 256.721C234.244 255.885 231.146 254.982 228.068 254.013C229.173 253.421 230.238 252.799 231.296 252.128C230.594 250.282 229.773 248.467 229.001 246.649C232.057 247.056 249.046 252.943 250.225 252.41C250.438 252.035 250.432 252.018 250.377 251.588C250.272 251.479 250.193 251.334 250.06 251.262C248.973 250.675 245.82 250.002 244.472 249.615L228.409 244.996C227.162 242.21 226.066 239.341 224.95 236.5C231.149 238.209 237.33 239.978 243.495 241.808C246.221 242.593 249 243.561 251.766 244.171C252.176 244.261 252.458 244.24 252.856 244.118C253.104 243.763 253.067 243.776 252.996 243.343C251.569 242.06 227.801 235.881 224.238 234.812C223.003 231.85 221.81 228.871 220.659 225.876C225.722 227.59 230.912 229.047 236.043 230.547C237.937 231.101 254.615 235.975 255.07 235.832C255.245 235.777 255.392 235.656 255.553 235.568L255.562 235.225C255.144 234.64 254.336 234.334 253.675 234.098C248.659 232.306 243.301 231.191 238.172 229.73C232.124 228.008 226.141 225.951 220.041 224.446C218.405 220.477 216.626 216.493 215.222 212.437C220.467 213.762 225.656 215.406 230.849 216.923C243.723 220.81 256.626 224.594 269.559 228.277Z" fill="#F0D379"/>
<path d="M216.644 218.692C218.4 222.153 219.332 226.054 221.112 229.46C222.061 232.221 223.295 234.899 224.391 237.607C226.301 242.33 228.158 247.089 230.372 251.68C224.654 255.096 218.665 257.683 212.551 260.29C205.078 263.424 197.566 266.463 190.016 269.405C188.829 265.911 187.344 262.491 186.014 259.047L178.116 238.842C177.652 237.686 174.932 231.709 174.891 231.117C174.884 231.002 174.967 230.898 175.005 230.789C176.708 230.737 178.503 230.385 180.187 230.112C189.334 228.628 198.403 225.782 207.057 222.498C210.272 221.279 213.402 219.843 216.644 218.692Z" fill="#FEFEFE"/>
<path d="M245.819 308.565C246.919 303.978 248.8 298.946 250.201 294.382C252.541 286.724 254.78 279.037 256.919 271.321C260.004 260.143 263.224 249.004 266.578 237.903C267.563 234.747 268.255 231.309 269.559 228.277C271.577 228.926 273.6 229.558 275.629 230.173C274.081 236.395 272.126 242.49 270.32 248.639L260.285 282.298L254.728 301.025C253.792 304.102 252.938 307.327 251.732 310.309C249.758 309.742 247.771 309.205 245.819 308.565Z" fill="#FEFEFE"/>
<path d="M139.583 245.87L138.885 245.826C137.929 245.204 137.762 243.58 137.507 242.547C137.831 242.563 138.149 242.597 138.472 242.63C139.417 243.347 139.416 244.78 139.583 245.87Z" fill="black"/>
<path d="M68.0115 259.551C77.6374 255.168 87.4777 251.267 97.1239 246.93L97.2991 246.939C98.0844 247.412 117.508 292.578 119.937 297.965C116.524 299.297 113.165 300.802 109.776 302.197L90.3357 310.066L89.1417 310.578C86.1152 303.847 83.4536 296.969 80.5844 290.173C76.3006 280.026 71.8819 269.861 68.0115 259.551Z" fill="#DFA85E"/>
<path d="M141.601 255.123C141.377 255.112 141.171 255.067 140.951 255.024C140.535 254.532 140.352 253.887 140.177 253.274C139.907 252.333 139.479 250.766 139.964 249.888L140.39 250.026C140.756 250.397 140.887 250.821 141.051 251.299C141.363 252.209 142.016 254.279 141.601 255.123Z" fill="black"/>
<path d="M144.288 264.749C143.954 264.735 143.729 264.68 143.419 264.557C142.439 263.414 141.956 260.844 141.901 259.364C142.192 259.4 142.615 259.363 142.802 259.602C143.623 260.649 144.417 263.448 144.288 264.749Z" fill="black"/>
<path d="M147.743 273.65C147.694 273.629 147.643 273.612 147.595 273.589C146.479 273.055 145.354 271.133 145.037 269.986C144.871 269.387 144.997 269.098 145.304 268.579C146.053 268.955 147.763 271.873 147.992 272.664C148.124 273.118 147.96 273.268 147.743 273.65Z" fill="black"/>
<path d="M155.552 279.995C155.449 279.981 155.345 279.972 155.243 279.953C153.969 279.727 151.969 278.314 151.284 277.261C150.978 276.79 151.092 276.489 151.185 275.98C151.768 276.125 155.143 278.781 155.53 279.309C155.701 279.543 155.593 279.727 155.552 279.995Z" fill="black"/>
<path d="M165.642 280.122C169.037 278.737 172.45 277.396 175.881 276.101L176.22 276.085C176.454 277.074 173.566 285.193 173.025 286.894L166.641 284.816L164.087 284.13C164.453 282.705 164.936 281.414 165.642 280.122Z" fill="#FEFEFE"/>
</svg>
