<svg width="60" height="60" viewBox="0 0 60 60" fill="none" xmlns="http://www.w3.org/2000/svg">
<path d="M30 0C46.5685 0 60 13.4315 60 30C60 46.5685 46.5685 60 30 60C13.4315 60 0 46.5685 0 30C0 13.4315 13.4315 0 30 0ZM20.667 30C18.8225 30 17.2502 30.6502 15.9502 31.9502C14.6502 33.2502 14 34.8225 14 36.667C14.0001 38.5113 14.6503 40.0839 15.9502 41.3838C17.2501 42.6836 18.8227 43.333 20.667 43.333C22.5113 43.3329 24.0839 42.6837 25.3838 41.3838C26.6837 40.0839 27.3329 38.5113 27.333 36.667C27.333 34.8227 26.6836 33.2501 25.3838 31.9502C24.0839 30.6503 22.5113 30.0001 20.667 30ZM39.333 30C37.4887 30.0001 35.9161 30.6503 34.6162 31.9502C33.3164 33.2501 32.667 34.8227 32.667 36.667C32.6671 38.5113 33.3163 40.0839 34.6162 41.3838C35.9161 42.6837 37.4887 43.3329 39.333 43.333C41.1773 43.333 42.7499 42.6836 44.0498 41.3838C45.3497 40.0839 45.9999 38.5113 46 36.667C46 34.8225 45.3498 33.2502 44.0498 31.9502C42.7498 30.6502 41.1775 30 39.333 30ZM20.667 32.667C21.7779 32.6671 22.7223 33.0554 23.5 33.833C24.2778 34.6108 24.667 35.5559 24.667 36.667C24.6669 37.778 24.2777 38.7223 23.5 39.5C22.7223 40.2777 21.778 40.6669 20.667 40.667C19.5559 40.667 18.6108 40.2778 17.833 39.5C17.0554 38.7223 16.6671 37.7779 16.667 36.667C16.667 35.5559 17.0552 34.6108 17.833 33.833C18.6108 33.0552 19.5559 32.667 20.667 32.667ZM39.333 32.667C40.4441 32.667 41.3892 33.0552 42.167 33.833C42.9448 34.6108 43.333 35.5559 43.333 36.667C43.3329 37.7779 42.9446 38.7223 42.167 39.5C41.3892 40.2778 40.4441 40.667 39.333 40.667C38.222 40.6669 37.2777 40.2777 36.5 39.5C35.7223 38.7223 35.3331 37.778 35.333 36.667C35.333 35.5559 35.7222 34.6108 36.5 33.833C37.2777 33.0554 38.2221 32.6671 39.333 32.667ZM30.1338 20.667C29.756 20.667 29.3942 20.7329 29.0498 20.8662C28.7054 20.9995 28.4004 21.2002 28.1338 21.4668L24.4004 25.2002C24.156 25.4446 23.9608 25.7276 23.8164 26.0498C23.672 26.3719 23.5996 26.7109 23.5996 27.0664C23.5996 27.4218 23.6666 27.7609 23.7998 28.083C23.9331 28.4052 24.1337 28.6891 24.4004 28.9336L28.667 32.667V39.333H31.333V31.0664L28.4004 28L31.5996 24.7998L32.667 25.8662C33.5559 26.7551 34.5724 27.4447 35.7168 27.9336C36.8611 28.4224 38.0665 28.667 39.333 28.667V26C38.4442 26 37.5997 25.8223 36.7998 25.4668C35.9999 25.1113 35.2891 24.6221 34.667 24L32.1338 21.4668C31.8671 21.2001 31.5612 20.9995 31.2168 20.8662C30.8725 20.7329 30.5114 20.667 30.1338 20.667ZM34.667 16C33.9337 16 33.3054 16.261 32.7832 16.7832C32.261 17.3054 32 17.9337 32 18.667C32.0001 19.4001 32.2612 20.0277 32.7832 20.5498C33.3054 21.072 33.9337 21.333 34.667 21.333C35.4002 21.3329 36.0277 21.0719 36.5498 20.5498C37.0719 20.0277 37.3329 19.4002 37.333 18.667C37.333 17.9337 37.072 17.3054 36.5498 16.7832C36.0277 16.2612 35.4001 16.0001 34.667 16Z" fill="#E8E8E8"/>
</svg>
