<svg width="60" height="60" viewBox="0 0 60 60" fill="none" xmlns="http://www.w3.org/2000/svg">
<path d="M30 0C46.5685 0 60 13.4315 60 30C60 46.5685 46.5685 60 30 60C13.4315 60 0 46.5685 0 30C0 13.4315 13.4315 0 30 0ZM25.5 17L22.7246 19.8887H18C17.175 19.8887 16.4684 20.1716 15.8809 20.7373C15.2935 21.3029 15.0001 21.9831 15 22.7773V40.1113C15.0001 40.9056 15.2936 41.5857 15.8809 42.1514C16.4684 42.7171 17.175 43 18 43H42C42.825 43 43.5316 42.7171 44.1191 42.1514C44.7064 41.5857 44.9999 40.9056 45 40.1113V22.7773C44.9999 21.9831 44.7065 21.3029 44.1191 20.7373C43.5316 20.1716 42.825 19.8887 42 19.8887H37.2754L34.5 17H25.5ZM33.1875 19.8887L35.9248 22.7773H42V40.1113H18V22.7773H24.0752L26.8125 19.8887H33.1875ZM30 24.9443C28.1251 24.9443 26.5312 25.5761 25.2188 26.8398C23.9063 28.1037 23.25 29.6388 23.25 31.4443C23.25 33.2499 23.9062 34.7849 25.2188 36.0488C26.5312 37.3126 28.1251 37.9443 30 37.9443C31.8749 37.9443 33.4688 37.3126 34.7812 36.0488C36.0938 34.7849 36.75 33.2499 36.75 31.4443C36.75 29.6388 36.0937 28.1037 34.7812 26.8398C33.4688 25.5761 31.8749 24.9443 30 24.9443ZM30 27.833C31.05 27.833 31.9371 28.1827 32.6621 28.8809C33.3871 29.579 33.75 30.4333 33.75 31.4443C33.75 32.4554 33.3871 33.3106 32.6621 34.0088C31.9372 34.7067 31.0498 35.0557 30 35.0557C28.9502 35.0557 28.0628 34.7067 27.3379 34.0088C26.6129 33.3106 26.25 32.4554 26.25 31.4443C26.25 30.4333 26.6129 29.579 27.3379 28.8809C28.0629 28.1827 28.95 27.833 30 27.833Z" fill="#E8E8E8"/>
</svg>
