<svg width="60" height="60" viewBox="0 0 60 60" fill="none" xmlns="http://www.w3.org/2000/svg">
<path d="M30 0C46.5685 0 60 13.4315 60 30C60 46.5685 46.5685 60 30 60C13.4315 60 0 46.5685 0 30C0 13.4315 13.4315 0 30 0ZM22.208 20.083C21.7595 20.0831 21.3522 20.213 20.9863 20.4727C20.6204 20.7324 20.3663 21.075 20.2246 21.5L17.25 30V41.333C17.25 41.7344 17.3857 42.0712 17.6572 42.3428C17.9288 42.6143 18.2656 42.75 18.667 42.75H20.083C20.4844 42.75 20.8212 42.6143 21.0928 42.3428C21.3643 42.0712 21.5 41.7344 21.5 41.333V39.917H38.5V41.333C38.5 41.7344 38.6357 42.0712 38.9072 42.3428C39.1788 42.6143 39.5156 42.75 39.917 42.75H41.333C41.7344 42.75 42.0712 42.6143 42.3428 42.3428C42.6143 42.0712 42.75 41.7344 42.75 41.333V30L39.7754 21.5C39.6337 21.075 39.3796 20.7324 39.0137 20.4727C38.6478 20.213 38.2405 20.0831 37.792 20.083H22.208ZM39.917 30V37.083H20.083V30H39.917ZM23.625 31.417C23.0349 31.417 22.5332 31.6232 22.1201 32.0361C21.7069 32.4493 21.5 32.9517 21.5 33.542C21.5001 34.1321 21.707 34.6338 22.1201 35.0469C22.5333 35.46 23.0348 35.667 23.625 35.667C24.2152 35.667 24.7167 35.46 25.1299 35.0469C25.543 34.6338 25.7499 34.1321 25.75 33.542C25.75 32.9517 25.5431 32.4493 25.1299 32.0361C24.7168 31.6232 24.2151 31.417 23.625 31.417ZM36.375 31.417C35.7849 31.417 35.2832 31.6232 34.8701 32.0361C34.4569 32.4493 34.25 32.9517 34.25 33.542C34.2501 34.1321 34.457 34.6338 34.8701 35.0469C35.2833 35.46 35.7848 35.667 36.375 35.667C36.9652 35.667 37.4667 35.46 37.8799 35.0469C38.293 34.6338 38.4999 34.1321 38.5 33.542C38.5 32.9517 38.2931 32.4493 37.8799 32.0361C37.4668 31.6232 36.9651 31.417 36.375 31.417ZM37.2959 22.917L38.7832 27.167H21.2168L22.7041 22.917H37.2959Z" fill="#E8E8E8"/>
</svg>
