<svg width="60" height="60" viewBox="0 0 60 60" fill="none" xmlns="http://www.w3.org/2000/svg">
<path d="M30 0C46.5685 0 60 13.4315 60 30C60 46.5685 46.5685 60 30 60C13.4315 60 0 46.5685 0 30C0 13.4315 13.4315 0 30 0ZM26 20.667V23.333H18V42H42V28.667H34V20.667L30 16.667L26 20.667ZM23.333 36.667V39.333H20.667V36.667H23.333ZM31.333 36.667V39.333H28.667V36.667H31.333ZM39.333 36.667V39.333H36.667V36.667H39.333ZM23.333 31.333V34H20.667V31.333H23.333ZM31.333 31.333V34H28.667V31.333H31.333ZM39.333 31.333V34H36.667V31.333H39.333ZM23.333 26V28.667H20.667V26H23.333ZM31.333 26V28.667H28.667V26H31.333ZM31.333 20.667V23.333H28.667V20.667H31.333Z" fill="#E8E8E8"/>
</svg>
