<svg width="60" height="60" viewBox="0 0 60 60" fill="none" xmlns="http://www.w3.org/2000/svg">
<path d="M30 0C46.5685 0 60 13.4315 60 30C60 46.5685 46.5685 60 30 60C13.4315 60 0 46.5685 0 30C0 13.4315 13.4315 0 30 0ZM29.7168 21.9668C29.3724 21.989 29.0445 22.0669 28.7334 22.2002L22 25.0664V31.333H24.667V26.7998L27.0664 25.8662L23.333 44.667H26.1338L28.5332 33.8662L31.333 36V44.667H34V34.667L31.2002 32L32.0332 27.9004C32.8998 28.9003 33.9448 29.7218 35.167 30.3662C36.3891 31.0106 37.7776 31.333 39.333 31.333V28.667C38.0665 28.6669 36.939 28.3665 35.9502 27.7666C34.9613 27.1666 34.1774 26.4001 33.5996 25.4668L32.2666 23.333C32.0888 23.022 31.8607 22.7663 31.583 22.5664C31.3053 22.3665 31.0112 22.2107 30.7002 22.0996C30.3891 21.9885 30.0612 21.9446 29.7168 21.9668ZM32 16C31.2667 16 30.6384 16.261 30.1162 16.7832C29.5941 17.3054 29.333 17.9337 29.333 18.667C29.3331 19.4 29.5943 20.0277 30.1162 20.5498C30.6384 21.072 31.2667 21.333 32 21.333C32.7333 21.333 33.3616 21.072 33.8838 20.5498C34.4057 20.0277 34.6669 19.4 34.667 18.667C34.667 17.9337 34.4059 17.3054 33.8838 16.7832C33.3616 16.261 32.7333 16 32 16Z" fill="#E8E8E8"/>
</svg>
