<svg width="33" height="32" viewBox="0 0 33 32" fill="none" xmlns="http://www.w3.org/2000/svg">
<path d="M15.1667 22.6667H17.8334V17.3334H23.1667V14.6667H17.8334V9.33335H15.1667V14.6667H9.83335V17.3334H15.1667V22.6667ZM16.5 29.3334C14.6556 29.3334 12.9222 28.9889 11.3 28.3C9.6778 27.5889 8.26669 26.6334 7.06669 25.4334C5.86669 24.2334 4.91113 22.8222 4.20002 21.2C3.51113 19.5778 3.16669 17.8445 3.16669 16C3.16669 14.1556 3.51113 12.4222 4.20002 10.8C4.91113 9.1778 5.86669 7.76669 7.06669 6.56669C8.26669 5.36669 9.6778 4.42224 11.3 3.73335C12.9222 3.02224 14.6556 2.66669 16.5 2.66669C18.3445 2.66669 20.0778 3.02224 21.7 3.73335C23.3222 4.42224 24.7334 5.36669 25.9334 6.56669C27.1334 7.76669 28.0778 9.1778 28.7667 10.8C29.4778 12.4222 29.8334 14.1556 29.8334 16C29.8334 17.8445 29.4778 19.5778 28.7667 21.2C28.0778 22.8222 27.1334 24.2334 25.9334 25.4334C24.7334 26.6334 23.3222 27.5889 21.7 28.3C20.0778 28.9889 18.3445 29.3334 16.5 29.3334ZM16.5 26.6667C19.4778 26.6667 22 25.6334 24.0667 23.5667C26.1334 21.5 27.1667 18.9778 27.1667 16C27.1667 13.0222 26.1334 10.5 24.0667 8.43335C22 6.36669 19.4778 5.33335 16.5 5.33335C13.5222 5.33335 11 6.36669 8.93335 8.43335C6.86669 10.5 5.83335 13.0222 5.83335 16C5.83335 18.9778 6.86669 21.5 8.93335 23.5667C11 25.6334 13.5222 26.6667 16.5 26.6667Z" fill="#949494"/>
</svg>
