<svg width="32" height="32" viewBox="0 0 32 32" fill="none" xmlns="http://www.w3.org/2000/svg">
<path d="M16 16C14.5333 16 13.2778 15.4778 12.2333 14.4333C11.1889 13.3889 10.6666 12.1333 10.6666 10.6666C10.6666 9.19998 11.1889 7.94442 12.2333 6.89998C13.2778 5.85554 14.5333 5.33331 16 5.33331C17.4666 5.33331 18.7222 5.85554 19.7666 6.89998C20.8111 7.94442 21.3333 9.19998 21.3333 10.6666C21.3333 12.1333 20.8111 13.3889 19.7666 14.4333C18.7222 15.4778 17.4666 16 16 16ZM5.33331 26.6666V22.9333C5.33331 22.1778 5.52776 21.4833 5.91665 20.85C6.30554 20.2166 6.8222 19.7333 7.46665 19.4C8.84442 18.7111 10.2444 18.1944 11.6666 17.85C13.0889 17.5055 14.5333 17.3333 16 17.3333C17.4666 17.3333 18.9111 17.5055 20.3333 17.85C21.7555 18.1944 23.1555 18.7111 24.5333 19.4C25.1778 19.7333 25.6944 20.2166 26.0833 20.85C26.4722 21.4833 26.6666 22.1778 26.6666 22.9333V26.6666H5.33331ZM7.99998 24H24V22.9333C24 22.6889 23.9389 22.4666 23.8166 22.2666C23.6944 22.0666 23.5333 21.9111 23.3333 21.8C22.1333 21.2 20.9222 20.75 19.7 20.45C18.4778 20.15 17.2444 20 16 20C14.7555 20 13.5222 20.15 12.3 20.45C11.0778 20.75 9.86665 21.2 8.66665 21.8C8.46665 21.9111 8.30554 22.0666 8.18331 22.2666C8.06109 22.4666 7.99998 22.6889 7.99998 22.9333V24ZM16 13.3333C16.7333 13.3333 17.3611 13.0722 17.8833 12.55C18.4055 12.0278 18.6666 11.4 18.6666 10.6666C18.6666 9.93331 18.4055 9.30554 17.8833 8.78331C17.3611 8.26109 16.7333 7.99998 16 7.99998C15.2666 7.99998 14.6389 8.26109 14.1166 8.78331C13.5944 9.30554 13.3333 9.93331 13.3333 10.6666C13.3333 11.4 13.5944 12.0278 14.1166 12.55C14.6389 13.0722 15.2666 13.3333 16 13.3333Z" fill="#949494"/>
</svg>
